<?xml version="1.0" standalone="no"?>
<!DOCTYPE svg PUBLIC "-//W3C//DTD SVG 20010904//EN"
 "http://www.w3.org/TR/2001/REC-SVG-20010904/DTD/svg10.dtd">
<svg version="1.0" xmlns="http://www.w3.org/2000/svg"
 width="600.000000pt" height="193.000000pt" viewBox="0 0 600.000000 193.000000"
 preserveAspectRatio="xMidYMid meet">
<g transform="translate(0.000000,193.000000) scale(0.100000,-0.100000)"
fill="#000000" stroke="none">
<path d="M68 1923 c12 -2 30 -2 40 0 9 3 -1 5 -23 4 -22 0 -30 -2 -17 -4z"/>
<path d="M300 1906 c0 -28 -35 -76 -56 -76 -8 0 -14 -4 -14 -10 0 -18 21 -10
51 19 19 20 29 40 29 60 0 17 -2 31 -5 31 -3 0 -5 -11 -5 -24z"/>
<path d="M440 1908 c-14 -16 -20 -33 -18 -55 1 -18 -4 -39 -14 -50 -28 -32
-30 -58 -7 -86 29 -38 63 -34 146 17 93 58 159 92 208 105 55 15 194 16 208 2
14 -14 27 -14 27 -1 0 5 -11 12 -25 16 -15 4 -28 16 -31 30 -3 13 -13 29 -22
36 -16 14 -16 13 4 -36 4 -10 -13 -14 -73 -19 -102 -7 -150 -25 -279 -103 -99
-60 -107 -63 -132 -52 -36 18 -40 51 -8 83 22 22 24 29 14 45 -19 30 18 74 65
78 22 2 37 -1 37 -7 0 -6 5 -11 10 -11 6 0 10 7 10 15 0 11 -12 15 -50 15 -38
0 -54 -5 -70 -22z"/>
<path d="M690 1915 c0 -8 4 -15 9 -15 5 0 14 7 21 15 10 13 9 15 -9 15 -12 0
-21 -6 -21 -15z"/>
<path d="M1150 1920 c0 -5 5 -10 10 -10 6 0 10 5 10 10 0 6 -4 10 -10 10 -5 0
-10 -4 -10 -10z"/>
<path d="M1274 1916 c-3 -8 -21 -17 -39 -20 -19 -4 -40 -14 -47 -24 -7 -9 -26
-17 -43 -17 -22 0 -33 -7 -45 -28 -14 -25 -13 -30 3 -58 9 -17 17 -37 17 -46
0 -30 34 -86 64 -104 37 -23 84 -24 150 -4 28 8 58 13 68 9 33 -10 58 -54 58
-103 l1 -46 29 32 c16 18 36 57 45 87 15 50 19 54 52 61 43 8 83 45 83 78 0
13 -11 41 -25 61 -14 20 -25 49 -25 64 0 34 -25 72 -48 72 -13 0 -12 -3 6 -16
15 -10 22 -25 22 -49 0 -20 10 -50 25 -71 25 -37 31 -69 17 -90 -11 -17 -48
-34 -76 -34 -22 0 -27 -7 -46 -69 -24 -82 -45 -106 -46 -55 0 24 -10 44 -30
65 -27 28 -33 30 -74 24 -125 -17 -150 -18 -175 -1 -33 22 -57 60 -57 91 0 14
-7 30 -14 36 -8 6 -14 24 -14 40 0 35 33 57 56 38 13 -10 17 -10 25 2 5 8 9
17 9 21 0 9 50 23 71 20 11 -2 18 6 21 23 5 26 -9 35 -18 11z"/>
<path d="M1457 1913 c6 -16 13 -16 35 1 15 11 14 13 -11 13 -20 0 -28 -4 -24
-14z"/>
<path d="M1740 1911 c-30 -56 6 -130 82 -169 56 -29 211 -43 244 -23 16 10 10
11 -31 8 -77 -6 -175 11 -220 37 -59 35 -77 77 -62 139 9 31 2 35 -13 8z"/>
<path d="M1870 1914 c-8 -8 -13 -29 -13 -46 0 -94 172 -108 218 -17 18 33 17
70 -1 76 -7 2 -10 -6 -6 -22 7 -40 -16 -73 -64 -91 -49 -18 -85 -13 -114 16
-25 25 -25 55 0 80 14 14 16 20 6 20 -7 0 -19 -7 -26 -16z"/>
<path d="M1967 1914 c3 -9 0 -20 -8 -24 -7 -5 -10 -13 -5 -17 11 -11 36 26 29
43 -3 8 -9 14 -14 14 -4 0 -6 -7 -2 -16z"/>
<path d="M2146 1908 c-3 -13 -6 -34 -6 -47 0 -36 16 -13 23 32 6 40 -7 52 -17
15z"/>
<path d="M2230 1899 c-16 -38 -16 -109 1 -140 7 -13 29 -45 51 -72 33 -43 38
-55 38 -103 0 -30 5 -54 10 -54 6 0 10 5 10 10 0 6 27 10 60 10 46 0 60 -3 60
-14 0 -17 -76 -32 -114 -22 -20 5 -24 3 -23 -14 1 -11 4 -20 8 -20 4 0 10 -9
14 -19 3 -10 19 -24 35 -31 27 -11 32 -10 53 11 38 40 49 77 42 144 l-7 61 46
51 c51 56 66 88 66 139 0 37 -24 94 -40 94 -5 0 -2 -12 6 -27 18 -36 18 -106
0 -141 -8 -15 -26 -38 -41 -52 -37 -33 -56 -82 -49 -119 l7 -31 -60 0 -60 0
-6 41 c-5 38 -26 76 -78 140 -28 36 -35 104 -16 152 9 20 12 37 8 37 -5 0 -14
-14 -21 -31z m230 -399 c0 -6 -26 -9 -62 -8 l-63 1 55 7 c30 4 58 7 63 8 4 1
7 -2 7 -8z m-15 -30 c-3 -5 -24 -10 -46 -10 -21 0 -39 5 -39 10 0 6 21 10 46
10 27 0 43 -4 39 -10z"/>
<path d="M2669 1871 c18 -72 6 -124 -40 -171 -36 -36 -31 -55 5 -20 52 48 71
143 45 219 -19 54 -26 34 -10 -28z"/>
<path d="M2750 1916 c0 -8 5 -18 10 -21 6 -3 10 3 10 14 0 12 -4 21 -10 21 -5
0 -10 -6 -10 -14z"/>
<path d="M2849 1913 c-9 -10 -15 -48 -18 -99 -3 -79 -2 -84 24 -110 21 -21 26
-33 21 -55 -7 -36 -2 -36 41 1 18 17 42 30 52 30 10 0 21 3 24 6 4 4 23 8 43
10 81 7 158 113 138 191 -5 20 -15 38 -22 41 -11 3 -12 0 -3 -16 39 -74 -36
-201 -119 -202 -35 0 -96 -23 -120 -45 -19 -17 -20 -18 -14 -1 5 13 -1 25 -22
41 -27 22 -29 27 -29 97 0 54 5 81 18 101 19 29 8 37 -14 10z"/>
<path d="M3300 1913 c-20 -8 -29 -17 -22 -20 7 -3 19 0 27 7 8 6 35 15 62 20
l48 8 -40 0 c-22 1 -56 -6 -75 -15z"/>
<path d="M3584 1896 c-39 -39 -44 -74 -15 -100 11 -10 21 -30 23 -45 3 -23 7
-26 51 -29 58 -4 59 -13 12 -93 -19 -33 -35 -66 -35 -73 0 -37 63 -49 97 -17
11 11 31 40 43 66 22 46 38 58 92 69 15 4 35 17 43 30 19 29 11 53 -38 117
-19 26 -38 56 -42 68 -4 14 -12 20 -21 17 -8 -3 -21 -9 -30 -13 -13 -5 -15 -2
-9 15 3 13 2 22 -4 22 -12 0 -25 -59 -19 -87 3 -15 13 -18 57 -18 53 0 54 0
80 -47 32 -58 25 -74 -44 -96 -42 -14 -54 -24 -75 -63 -14 -25 -31 -54 -39
-63 -16 -19 -71 -22 -71 -3 0 6 17 45 37 85 37 71 38 73 19 87 -11 8 -30 15
-43 15 -13 0 -23 5 -23 10 0 6 18 10 40 10 22 0 40 -4 40 -10 0 -5 5 -10 10
-10 6 0 10 7 10 15 0 10 -10 15 -27 15 -16 0 -38 3 -50 6 -16 4 -23 0 -28 -15
-9 -28 -25 -27 -25 3 0 13 -7 29 -15 36 -26 22 -18 60 22 96 20 19 31 34 24
34 -7 0 -28 -15 -47 -34z m220 -22 c11 -29 6 -34 -29 -34 -40 0 -47 19 -12 36
31 16 34 16 41 -2z"/>
<path d="M4066 1909 c-38 -30 -56 -71 -56 -126 0 -51 10 -72 67 -136 18 -20
33 -44 33 -52 0 -18 43 -65 59 -65 24 0 51 44 49 81 -1 24 8 53 27 84 48 82
31 186 -35 220 -43 22 -112 19 -144 -6z m148 -14 c54 -50 59 -110 16 -192 -17
-31 -33 -59 -37 -62 -3 -4 -3 32 -1 79 3 47 3 91 1 98 -5 14 -33 16 -33 2 0
-5 5 -10 10 -10 13 0 13 -37 1 -44 -5 -4 -12 0 -14 6 -3 8 -6 5 -6 -6 -1 -12
-6 -16 -16 -12 -8 3 -15 0 -15 -6 0 -7 -5 -6 -15 2 -8 7 -15 23 -15 36 0 13
-4 24 -10 24 -18 0 -10 -35 15 -70 32 -43 50 -99 37 -112 -14 -14 -89 76 -104
123 -25 84 34 169 116 169 32 0 50 -6 70 -25z m-40 -200 c0 -68 -8 -78 -24
-28 -7 21 -16 42 -21 47 -7 8 20 31 41 35 3 1 5 -24 4 -54z m24 -89 c0 -19 -7
-26 -30 -31 -16 -4 -32 -5 -34 -2 -3 3 8 8 25 12 17 4 29 11 26 15 -3 5 -17 5
-31 0 -33 -13 -37 -13 -32 2 4 11 35 24 64 27 6 1 12 -10 12 -23z m-8 -46 c0
-5 -10 -10 -22 -9 -22 0 -22 1 -3 9 11 5 21 9 23 9 1 1 2 -3 2 -9z"/>
<path d="M5958 1923 c7 -3 16 -2 19 1 4 3 -2 6 -13 5 -11 0 -14 -3 -6 -6z"/>
<path d="M3060 1910 c-19 -5 -38 -6 -42 -4 -4 3 -7 -16 -6 -41 1 -44 18 -66
18 -22 0 16 10 26 40 39 22 9 40 21 40 27 0 12 -1 12 -50 1z"/>
<path d="M3960 1911 c0 -11 31 -24 39 -16 3 3 -1 10 -9 15 -19 12 -30 12 -30
1z"/>
<path d="M4480 1910 c0 -5 5 -10 10 -10 6 0 10 5 10 10 0 6 -4 10 -10 10 -5 0
-10 -4 -10 -10z"/>
<path d="M4585 1901 c-49 -22 -90 -68 -121 -136 -26 -54 -30 -75 -14 -75 6 0
10 7 10 15 0 28 49 113 87 150 23 23 50 37 75 41 20 4 35 10 32 15 -8 13 -24
11 -69 -10z"/>
<path d="M5325 1910 c-36 -14 -49 -40 -52 -107 -4 -75 -16 -103 -43 -103 -25
0 -39 27 -50 97 -5 31 -17 64 -27 75 -24 27 -71 20 -97 -15 -27 -37 -29 -151
-2 -191 24 -38 30 -27 10 20 -24 56 -15 151 15 175 13 11 27 19 32 19 23 0 46
-41 52 -90 11 -95 61 -136 104 -86 19 22 23 39 23 92 0 51 4 68 20 84 49 49
100 2 100 -92 0 -33 5 -68 10 -79 15 -27 55 -24 78 6 24 30 39 102 24 117 -6
6 -11 -9 -14 -42 -6 -57 -35 -97 -62 -87 -12 5 -16 20 -16 59 0 61 -15 121
-33 136 -20 16 -51 21 -72 12z"/>
<path d="M4760 1880 c-11 -11 -20 -27 -20 -34 0 -8 -12 -21 -27 -28 -16 -7
-32 -23 -38 -36 -5 -12 -17 -22 -26 -22 -18 0 -49 -30 -49 -48 0 -6 -9 -16
-21 -22 -44 -24 -37 -90 10 -90 12 0 10 5 -7 18 -22 17 -23 52 -1 52 6 0 19
16 30 35 12 19 29 35 39 35 16 0 16 -4 6 -34 -6 -18 -17 -40 -23 -47 -22 -28
-55 -119 -49 -135 4 -9 1 -23 -5 -31 -17 -20 -2 -29 19 -10 15 13 25 14 60 5
23 -6 42 -16 42 -23 0 -6 9 -20 19 -29 15 -14 24 -15 39 -7 20 10 59 98 48
108 -5 5 -20 -25 -39 -79 -10 -27 -35 -21 -51 11 -13 24 -24 30 -66 36 -49 7
-50 7 -50 43 l0 35 23 -21 c13 -12 31 -22 41 -22 23 0 73 26 80 42 3 10 8 9
15 -3 15 -23 86 -59 116 -59 14 0 34 9 45 20 23 23 27 78 6 86 -8 3 -17 16
-20 30 -4 13 -11 24 -17 24 -6 0 -3 7 5 16 9 8 16 23 16 32 0 23 -28 62 -44
62 -16 0 -26 22 -26 55 0 21 -32 55 -52 55 -5 0 -17 -9 -28 -20z m61 -27 c8
-21 6 -22 -24 -16 -41 8 -43 9 -27 28 17 21 41 15 51 -12z m0 -43 c10 -6 19
-18 19 -26 0 -10 6 -14 14 -11 20 8 36 -13 36 -44 0 -34 -3 -36 -76 -47 -32
-5 -60 -15 -62 -21 -3 -9 -10 -7 -23 5 -10 9 -30 17 -44 17 -28 0 -29 1 -15
28 14 26 54 24 73 -3 13 -19 16 -20 16 -6 1 22 -43 52 -64 44 -8 -3 -15 0 -15
7 1 46 91 83 141 57z m57 -142 c7 -7 12 -20 12 -30 0 -10 7 -18 15 -18 20 0
20 -53 0 -70 -16 -13 -61 -17 -72 -6 -3 3 1 14 10 24 19 20 23 77 7 87 -5 3
-10 10 -10 16 0 13 24 11 38 -3z m-158 -18 c26 -26 25 -42 -2 -67 -33 -29 -53
-33 -78 -16 -17 12 -20 21 -15 42 14 56 60 76 95 41z m116 -5 c14 -21 15 -31
6 -51 -7 -13 -19 -27 -27 -30 -18 -7 -47 14 -39 27 3 5 1 9 -4 9 -19 0 -22 45
-5 58 26 19 51 14 69 -13z"/>
<path d="M3326 1875 c-43 -15 -63 -31 -53 -41 4 -4 16 1 27 11 14 13 42 19 95
23 41 2 75 9 75 13 0 14 -101 10 -144 -6z"/>
<path d="M4408 1823 c-30 -62 -33 -76 -35 -172 -1 -103 -1 -105 28 -134 40
-39 45 -30 11 17 -24 34 -27 47 -27 120 0 82 3 89 73 229 2 4 -1 7 -7 7 -5 0
-25 -30 -43 -67z"/>
<path d="M2933 1872 c-18 -6 -20 -10 -9 -24 15 -20 59 -20 51 0 -3 7 -5 18 -5
23 0 10 -5 10 -37 1z"/>
<path d="M4314 1865 c-17 -13 -17 -14 -2 -15 9 0 20 5 23 11 11 17 0 20 -21 4z"/>
<path d="M5673 1848 c-30 -33 -57 -78 -50 -84 3 -3 19 15 37 40 17 25 35 46
40 46 6 0 10 5 10 10 0 17 -15 11 -37 -12z"/>
<path d="M5784 1853 c4 -4 22 -6 40 -5 18 2 51 -3 74 -11 45 -16 60 -3 16 13
-29 11 -141 14 -130 3z"/>
<path d="M1446 1835 c-9 -25 -7 -45 5 -45 6 0 9 6 6 14 -8 19 18 42 28 25 4
-6 1 -15 -6 -20 -7 -4 -10 -11 -6 -15 11 -12 29 12 25 32 -4 24 -43 31 -52 9z"/>
<path d="M2383 1839 c-7 -7 -13 -21 -13 -30 0 -25 -15 -32 -30 -14 -18 22 -30
18 -30 -9 0 -13 9 -30 21 -37 15 -11 22 -31 30 -89 5 -41 12 -79 14 -85 7 -14
-3 135 -11 168 -6 24 -4 27 19 27 14 0 31 8 36 18 9 13 10 10 7 -18 -2 -19 -7
-69 -10 -110 -7 -90 8 -66 18 30 6 46 13 68 27 78 10 7 19 22 19 34 0 17 -5
19 -27 15 -19 -3 -31 1 -42 15 -13 15 -18 17 -28 7z m20 -52 c-9 -16 -24 9
-17 28 7 18 8 18 14 -1 4 -10 5 -23 3 -27z m53 -3 c-4 -9 -9 -15 -11 -12 -3 3
-3 13 1 22 4 9 9 15 11 12 3 -3 3 -13 -1 -22z m-116 -10 c0 -8 -4 -12 -10 -9
-5 3 -10 10 -10 16 0 5 5 9 10 9 6 0 10 -7 10 -16z"/>
<path d="M2761 1840 c-1 -3 -4 -26 -6 -53 -2 -26 -7 -52 -10 -57 -3 -6 -1 -10
5 -10 6 0 13 6 16 14 5 13 0 116 -5 106z"/>
<path d="M0 1820 c0 -5 20 -10 44 -10 59 0 101 -31 143 -105 29 -52 33 -67 30
-116 -4 -75 -32 -112 -103 -138 -30 -12 -66 -21 -79 -21 -13 0 -27 -4 -30 -10
-16 -26 121 9 169 43 34 24 66 89 66 137 0 72 -75 191 -137 216 -38 16 -103
19 -103 4z"/>
<path d="M1305 1810 c-7 -12 2 -30 16 -30 5 0 9 9 9 20 0 21 -15 27 -25 10z"/>
<path d="M3935 1810 c-4 -6 5 -10 20 -10 15 0 24 4 20 10 -3 6 -12 10 -20 10
-8 0 -17 -4 -20 -10z"/>
<path d="M3351 1796 c-77 -22 -130 -112 -115 -194 9 -49 25 -79 66 -123 61
-66 141 -59 208 17 36 41 40 101 13 178 -35 96 -101 143 -172 122z m92 -26
c72 -57 102 -209 52 -268 -52 -62 -128 -66 -183 -9 -87 90 -81 220 14 274 48
28 84 29 117 3z"/>
<path d="M3425 1637 c0 -39 -4 -75 -10 -79 -13 -9 1 -22 14 -13 12 7 15 165 4
165 -5 0 -8 -33 -8 -73z"/>
<path d="M3330 1651 c1 -24 18 -31 43 -20 37 17 34 27 -8 26 -19 -1 -35 -3
-35 -6z"/>
<path d="M3364 1509 c-7 -13 46 -23 57 -12 7 7 0 12 -21 15 -17 3 -33 1 -36
-3z"/>
<path d="M5750 1789 c-33 -14 -80 -59 -80 -78 0 -8 14 2 33 24 28 32 40 38 84
42 63 6 111 -9 168 -53 47 -35 62 -33 23 3 -59 54 -174 85 -228 62z"/>
<path d="M240 1783 c0 -5 14 -16 30 -25 18 -10 36 -33 46 -57 9 -23 20 -41 25
-41 13 0 11 6 -11 49 -25 50 -90 103 -90 74z"/>
<path d="M1231 1776 c-12 -14 -5 -26 16 -26 15 0 18 26 4 34 -5 3 -14 0 -20
-8z"/>
<path d="M717 1746 c-78 -28 -148 -70 -196 -120 -43 -44 -50 -99 -26 -199 18
-75 97 -248 123 -270 19 -15 18 -12 -41 104 -56 112 -81 203 -75 276 4 44 11
60 39 89 37 39 177 112 232 121 30 5 35 2 47 -26 11 -28 30 -42 30 -23 0 18
-45 72 -60 72 -3 0 -35 -11 -73 -24z"/>
<path d="M1165 1750 c-8 -13 4 -32 16 -25 12 8 12 35 0 35 -6 0 -13 -4 -16
-10z"/>
<path d="M2875 1751 c-6 -11 9 -23 19 -14 9 9 7 23 -3 23 -6 0 -12 -4 -16 -9z"/>
<path d="M890 1740 c0 -5 18 -10 40 -10 47 0 78 -25 87 -71 3 -19 9 -27 15
-21 16 16 -18 79 -51 96 -34 18 -91 21 -91 6z"/>
<path d="M2150 1743 c0 -15 56 -80 63 -73 3 3 -10 23 -29 45 -18 22 -34 34
-34 28z"/>
<path d="M1470 1730 c0 -5 7 -7 15 -4 8 4 15 8 15 10 0 2 -7 4 -15 4 -8 0 -15
-4 -15 -10z"/>
<path d="M2940 1730 c-8 -5 -12 -12 -9 -15 8 -8 39 5 39 16 0 11 -11 11 -30
-1z"/>
<path d="M1475 1710 c-3 -5 1 -10 9 -10 9 0 16 5 16 10 0 6 -4 10 -9 10 -6 0
-13 -4 -16 -10z"/>
<path d="M3174 1678 c-16 -32 -20 -55 -17 -90 3 -27 9 -48 14 -48 4 0 6 22 2
48 -4 38 -1 55 16 82 22 37 26 50 13 50 -4 0 -17 -19 -28 -42z"/>
<path d="M1740 1700 c0 -5 5 -10 10 -10 6 0 10 5 10 10 0 6 -4 10 -10 10 -5 0
-10 -4 -10 -10z"/>
<path d="M5799 1676 c-93 -64 -85 -221 14 -273 38 -20 112 -22 155 -4 47 20
39 33 -9 16 -80 -29 -153 -10 -189 47 -30 47 -24 137 11 174 75 82 182 58 196
-44 5 -34 1 -45 -20 -66 -30 -30 -71 -34 -105 -10 -28 19 -28 58 -1 78 38 26
67 -2 32 -31 -17 -13 -17 -14 1 -11 28 4 43 33 27 52 -20 24 -57 19 -80 -10
-27 -34 -26 -55 2 -82 32 -30 69 -36 106 -18 39 21 51 44 51 98 -1 96 -106
142 -191 84z"/>
<path d="M662 1654 c-61 -30 -102 -75 -102 -112 0 -40 28 -202 41 -242 15 -44
47 -80 72 -80 24 0 166 50 173 61 8 14 -6 11 -90 -21 -113 -42 -123 -34 -156
122 -27 128 -26 189 3 215 27 25 100 63 122 63 8 0 15 5 15 10 0 16 -23 12
-78 -16z"/>
<path d="M860 1666 c0 -8 5 -18 10 -21 6 -3 10 1 10 9 0 8 -4 18 -10 21 -5 3
-10 -1 -10 -9z"/>
<path d="M950 1669 c0 -2 13 -36 29 -76 17 -40 29 -85 28 -100 -1 -19 3 -28
16 -31 16 -3 18 0 12 27 -7 35 8 47 49 37 20 -5 26 -18 46 -113 13 -60 25
-129 27 -154 4 -42 2 -48 -27 -72 -50 -43 -94 -32 -141 34 l-22 31 31 -6 c38
-9 102 8 134 34 30 25 22 25 -27 0 -44 -23 -113 -26 -138 -7 -12 9 -87 252
-87 283 0 2 -5 4 -11 4 -7 0 -8 -7 -4 -17 4 -10 14 -46 21 -81 46 -210 110
-316 192 -316 27 0 42 8 69 38 31 33 35 43 30 75 -5 31 -36 183 -52 248 -8 32
-40 47 -75 34 -29 -10 -30 -9 -51 49 -12 33 -28 65 -35 71 -8 6 -14 10 -14 8z"/>
<path d="M1853 1652 c-20 -13 -33 -60 -33 -120 0 -65 -9 -85 -36 -80 -14 2
-23 20 -34 62 -16 61 -35 84 -64 73 -21 -8 -46 -66 -46 -106 0 -54 17 -42 22
15 3 34 11 62 22 72 16 16 18 16 31 -1 7 -10 16 -35 20 -55 8 -45 31 -82 50
-82 8 0 24 9 35 20 16 16 20 33 20 88 0 46 5 75 16 90 25 36 44 11 44 -57 0
-53 11 -81 33 -81 4 0 19 25 33 56 32 72 48 67 52 -18 3 -71 17 -94 50 -84 12
4 28 29 42 67 27 74 48 76 69 6 15 -50 36 -66 25 -19 -16 70 -50 106 -78 83
-8 -7 -22 -35 -31 -62 -30 -88 -65 -76 -65 22 0 97 -51 102 -79 9 -6 -22 -16
-40 -21 -40 -13 0 -24 46 -16 67 4 9 2 31 -5 50 -10 32 -30 41 -56 25z"/>
<path d="M4436 1638 c8 -27 12 -33 19 -27 7 8 -7 49 -17 49 -5 0 -6 -10 -2
-22z"/>
<path d="M2665 1628 c-37 -14 -108 -58 -102 -64 2 -2 30 9 62 26 31 16 68 30
81 30 13 0 24 5 24 10 0 13 -26 12 -65 -2z"/>
<path d="M2998 1599 c-10 -5 -18 -15 -18 -21 0 -7 5 -7 14 1 8 6 33 16 57 20
l44 9 -40 1 c-22 0 -48 -4 -57 -10z"/>
<path d="M3877 1595 c-26 -26 -21 -54 11 -60 15 -3 43 -10 63 -15 54 -15 61
-13 57 17 -6 50 -98 91 -131 58z m99 -30 c33 -33 23 -46 -23 -29 -21 7 -46 13
-55 14 -18 0 -24 20 -11 33 15 16 65 6 89 -18z"/>
<path d="M5476 1588 c-8 -13 -48 -104 -89 -203 -70 -168 -75 -186 -78 -266
l-4 -85 25 23 c14 13 44 38 66 56 38 29 46 45 108 211 79 210 86 239 61 266
-25 27 -71 26 -89 -2z m84 -18 c13 -25 9 -25 -32 0 l-33 20 27 0 c17 0 31 -8
38 -20z m-34 -16 c55 -26 41 -52 -17 -32 -42 14 -41 12 -33 32 8 20 8 20 50 0z
m-38 -43 c10 -6 -2 -44 -50 -164 -56 -139 -65 -156 -83 -151 -11 4 -21 7 -22
9 -2 1 12 37 31 81 19 43 48 114 66 157 33 79 36 83 58 68z m62 -17 c0 -13
-124 -324 -129 -324 -3 0 -12 4 -19 8 -18 12 114 333 134 325 8 -3 14 -7 14
-9z m-156 -328 l30 -12 -37 -28 c-47 -36 -67 -29 -67 24 0 45 0 45 74 16z"/>
<path d="M5662 1583 c-27 -52 -22 -156 11 -188 6 -7 7 -2 2 15 -14 47 -17 107
-6 145 12 43 8 57 -7 28z"/>
<path d="M700 1542 c-55 -55 -46 -163 15 -178 32 -8 95 3 95 17 0 6 -9 7 -22
2 -37 -12 -80 -7 -95 13 -16 22 -17 75 -1 109 14 31 60 58 83 49 24 -10 48
-62 40 -91 -8 -32 -29 -24 -35 13 -4 20 -11 29 -25 29 -24 0 -49 -47 -40 -75
7 -21 39 -27 50 -10 4 6 15 8 25 5 40 -13 54 74 19 119 -28 36 -72 35 -109 -2z
m70 -83 c0 -9 -7 -22 -15 -29 -21 -18 -31 13 -16 48 10 21 14 23 22 11 5 -7 9
-21 9 -30z"/>
<path d="M2696 1555 c-102 -36 -159 -125 -182 -281 -16 -115 -17 -154 -5 -154
4 0 11 40 15 89 13 176 53 265 141 313 97 52 191 45 256 -20 20 -21 38 -44 41
-52 3 -8 8 -12 12 -8 4 3 -4 24 -18 46 -46 73 -160 103 -260 67z"/>
<path d="M270 1541 c-6 -11 -8 -35 -5 -52 4 -21 1 -35 -7 -40 -7 -4 -9 -11 -6
-14 15 -16 28 10 29 58 1 51 1 51 13 23 9 -20 15 -25 19 -15 9 23 37 -19 37
-56 0 -35 -24 -75 -46 -75 -9 0 -14 -11 -14 -35 0 -36 -28 -75 -53 -75 -8 0
-30 16 -50 35 -20 19 -43 35 -52 35 -24 0 -18 -17 9 -24 13 -3 31 -17 40 -31
12 -18 25 -25 50 -25 39 0 63 23 73 71 3 18 17 42 29 52 47 37 37 138 -14 145
-12 2 -22 10 -22 17 0 23 -18 27 -30 6z"/>
<path d="M5150 1551 c0 -5 12 -12 27 -16 15 -3 40 -16 56 -27 20 -14 28 -17
25 -7 -5 15 -75 59 -95 59 -7 0 -13 -4 -13 -9z"/>
<path d="M3055 1540 c-4 -6 5 -10 19 -10 14 0 26 5 26 10 0 6 -9 10 -19 10
-11 0 -23 -4 -26 -10z"/>
<path d="M2358 1533 c7 -3 16 -2 19 1 4 3 -2 6 -13 5 -11 0 -14 -3 -6 -6z"/>
<path d="M2398 1533 c6 -2 18 -2 25 0 6 3 1 5 -13 5 -14 0 -19 -2 -12 -5z"/>
<path d="M1255 1501 c-39 -18 -77 -51 -58 -51 6 0 22 9 37 21 15 12 45 23 66
26 22 3 40 10 40 14 0 15 -42 10 -85 -10z"/>
<path d="M5064 1512 c3 -6 20 -13 36 -17 17 -4 54 -22 82 -41 53 -36 78 -39
37 -4 -46 38 -172 89 -155 62z"/>
<path d="M3096 1494 c-8 -20 10 -44 34 -44 21 0 54 35 45 49 -10 18 -72 13
-79 -5z m62 -15 c-17 -12 -48 -11 -48 0 0 13 21 19 43 13 15 -4 16 -7 5 -13z"/>
<path d="M4292 1474 c-52 -52 -120 -62 -247 -35 -144 31 -219 27 -282 -14 -38
-25 -20 -29 26 -6 64 33 117 36 218 12 113 -26 194 -27 250 -2 43 20 83 54 83
71 0 16 -13 9 -48 -26z"/>
<path d="M2745 1461 c-36 -15 -59 -50 -58 -87 1 -24 -5 -37 -18 -44 -31 -17
-48 -64 -51 -137 -3 -58 1 -74 22 -108 14 -22 24 -43 22 -47 -1 -5 4 -8 11 -8
8 0 24 -12 38 -26 32 -35 90 -63 142 -70 49 -7 94 11 133 53 l24 26 -11 -33
c-16 -45 -68 -94 -116 -108 -33 -10 -49 -9 -91 3 -34 10 -52 21 -52 31 0 10
-6 14 -15 10 -24 -9 -86 54 -116 119 -28 61 -41 53 -15 -9 23 -54 80 -110 150
-146 54 -27 73 -32 111 -28 100 12 167 93 165 201 0 28 -1 85 -1 125 l1 73
-45 44 c-24 25 -52 45 -61 45 -12 0 -15 6 -10 24 17 70 -80 129 -159 97z m119
-32 c31 -25 34 -62 6 -86 -11 -10 -36 -34 -55 -53 -34 -34 -35 -34 -33 -10 2
17 -3 25 -17 28 -31 6 -65 43 -65 69 0 13 11 35 25 48 32 33 100 35 139 4z
m127 -171 c41 -76 -42 -131 -188 -124 -54 2 -71 0 -63 -8 6 -6 45 -11 88 -10
77 0 122 14 165 52 31 27 21 -16 -11 -48 -32 -31 -86 -50 -146 -50 -26 0 -37
-3 -30 -10 15 -15 134 6 165 29 30 22 39 19 39 -16 0 -91 -115 -150 -214 -109
-72 30 -166 137 -166 189 l0 30 28 -39 c71 -97 164 -154 227 -138 24 6 36 34
15 34 -5 0 -10 -4 -10 -10 0 -13 -51 -13 -87 1 -59 22 -173 157 -173 203 1 19
2 19 11 4 17 -31 96 -69 151 -75 57 -6 135 18 123 37 -4 6 -12 5 -21 -5 -27
-26 -130 -19 -189 13 -42 22 -51 32 -53 59 -2 23 3 35 19 47 20 14 25 13 61
-7 34 -19 38 -26 34 -49 -7 -37 6 -35 41 5 15 17 42 42 58 54 l29 21 44 -31
c24 -18 48 -39 53 -49z"/>
<path d="M2780 1405 c-18 -21 0 -39 42 -41 17 -1 26 1 20 5 -5 3 -11 15 -13
26 -5 25 -32 31 -49 10z m40 -16 c0 -5 -7 -9 -15 -9 -15 0 -20 12 -9 23 8 8
24 -1 24 -14z"/>
<path d="M2745 1380 c3 -5 8 -10 11 -10 2 0 4 5 4 10 0 6 -5 10 -11 10 -5 0
-7 -4 -4 -10z"/>
<path d="M2926 1267 c4 -10 -2 -17 -18 -20 -17 -4 -15 -5 7 -4 30 2 43 26 17
35 -7 2 -10 -2 -6 -11z"/>
<path d="M4980 1453 c0 -6 19 -13 43 -15 61 -7 115 -36 165 -86 23 -24 42 -39
42 -33 0 20 -59 77 -108 104 -53 29 -142 47 -142 30z"/>
<path d="M1285 1441 c-24 -10 -62 -51 -48 -51 6 0 16 7 23 15 7 8 33 22 59 29
40 13 42 15 16 15 -16 0 -39 -4 -50 -8z"/>
<path d="M1492 1375 c-36 -41 -43 -45 -87 -45 -121 0 -190 -98 -117 -167 15
-15 22 -23 16 -20 -20 12 -32 -50 -18 -87 10 -27 24 -17 18 13 -8 37 11 71 39
72 21 0 21 1 2 9 -19 8 -19 9 3 9 12 1 22 6 22 12 0 7 -7 8 -17 4 -47 -19 -53
-18 -67 16 -26 61 13 113 89 120 73 6 84 1 115 -47 l29 -47 11 27 c5 15 10 41
10 57 0 16 5 29 10 29 6 0 10 -4 10 -9 0 -5 9 -11 20 -14 15 -4 20 -14 22 -44
1 -36 1 -37 5 -5 4 32 17 42 26 20 3 -8 6 -6 6 5 1 10 -6 20 -14 23 -8 4 -15
13 -15 21 0 13 -3 13 -15 3 -25 -21 -52 11 -47 55 6 47 -8 44 -56 -10z m38
-11 c-6 -14 -8 -30 -5 -35 3 -5 3 -25 -1 -44 l-6 -36 -25 36 -24 35 27 35 c31
41 48 46 34 9z"/>
<path d="M2209 1413 c-18 -4 -39 -44 -39 -73 0 -29 15 -24 16 5 4 56 45 71 84
30 19 -20 22 -32 17 -71 -2 -25 -12 -53 -21 -63 -16 -15 -19 -14 -37 12 -35
46 -110 27 -109 -29 1 -15 4 -14 16 9 20 37 69 38 86 1 9 -20 17 -24 35 -19
13 3 23 1 23 -5 0 -5 5 -10 11 -10 6 0 8 7 5 15 -3 9 -1 38 5 65 9 40 8 55 -6
84 -17 35 -54 56 -86 49z"/>
<path d="M3153 1406 c-72 -15 -76 -22 -60 -86 8 -29 17 -48 21 -42 4 6 1 30
-5 52 -7 22 -10 43 -7 45 12 12 129 28 137 19 10 -9 31 -175 31 -239 l0 -35
-72 1 c-40 1 -65 3 -55 6 9 2 17 9 17 14 0 6 -8 9 -17 7 -22 -4 -30 -79 -14
-122 10 -26 14 -27 69 -25 88 3 102 11 102 58 0 22 -4 42 -8 45 -5 3 -12 67
-15 142 -8 180 -12 185 -124 160z m121 -312 c3 -9 6 -29 6 -45 l0 -29 -70 0
-70 0 0 45 0 45 64 0 c49 0 65 -4 70 -16z"/>
<path d="M3213 1084 c-7 -18 11 -39 26 -30 17 11 13 46 -4 46 -9 0 -18 -7 -22
-16z m27 -4 c0 -5 -5 -10 -11 -10 -5 0 -7 5 -4 10 3 6 8 10 11 10 2 0 4 -4 4
-10z"/>
<path d="M3488 1383 c-63 -43 -91 -109 -113 -268 -35 -250 -75 -335 -157 -335
-39 0 -80 42 -76 77 4 31 32 53 48 37 17 -17 1 -46 -21 -39 -11 4 -19 2 -19
-5 0 -6 12 -10 28 -8 22 2 27 8 27 32 0 40 -27 56 -54 32 -29 -26 -27 -77 3
-113 32 -37 93 -39 131 -3 54 50 75 114 105 315 24 157 37 196 82 242 54 55
119 55 170 1 17 -19 28 -25 28 -16 0 53 -127 88 -182 51z"/>
<path d="M2066 1373 c5 -10 8 -52 6 -93 -3 -99 3 -120 31 -119 17 1 18 2 5 6
-16 4 -18 17 -18 98 0 97 -5 125 -22 125 -6 0 -7 -7 -2 -17z"/>
<path d="M4370 1365 c-5 -14 -10 -60 -10 -101 0 -92 19 -118 96 -128 68 -10
181 11 194 34 13 24 13 180 0 200 -7 12 -37 16 -139 19 l-131 3 -10 -27z m273
-32 c5 -17 6 -61 3 -96 -7 -64 -8 -64 -45 -76 -51 -15 -160 -14 -191 2 -32 16
-45 74 -35 151 l7 57 126 -3 126 -3 9 -32z"/>
<path d="M4420 1320 c0 -15 5 -20 18 -18 9 2 17 10 17 18 0 8 -8 16 -17 18
-13 2 -18 -3 -18 -18z"/>
<path d="M4515 1330 c-10 -17 5 -30 34 -30 29 0 57 21 44 33 -10 11 -71 8 -78
-3z m35 -10 c0 -5 -4 -10 -10 -10 -5 0 -10 5 -10 10 0 6 5 10 10 10 6 0 10 -4
10 -10z"/>
<path d="M4405 1240 c8 -12 185 -12 185 1 0 5 -43 9 -96 9 -61 0 -93 -4 -89
-10z"/>
<path d="M4410 1193 c0 -10 168 -9 177 1 3 3 -35 6 -85 6 -51 0 -92 -3 -92 -7z"/>
<path d="M4851 1368 c-16 -16 -25 -19 -28 -10 -3 6 -9 12 -15 12 -6 0 -7 -7
-4 -15 4 -10 -3 -20 -19 -27 -32 -15 -32 -38 0 -38 42 0 29 -41 -18 -59 -38
-15 -35 -33 3 -19 35 12 64 59 55 89 -5 15 3 29 32 54 21 19 33 34 28 35 -6 0
-21 -10 -34 -22z m-41 -58 c0 -5 -7 -10 -16 -10 -8 0 -12 5 -9 10 3 6 10 10
16 10 5 0 9 -4 9 -10z"/>
<path d="M3883 1370 c-36 -15 -27 -20 21 -14 35 5 53 2 80 -14 40 -24 50 -12
12 13 -31 20 -85 27 -113 15z"/>
<path d="M1802 1358 c-17 -17 -15 -32 9 -62 l20 -26 -26 -10 c-14 -5 -41 -10
-58 -10 -20 -1 -44 -11 -62 -26 -17 -15 -22 -24 -12 -20 16 5 17 1 11 -29 -4
-23 -2 -35 5 -35 6 0 11 11 11 24 0 14 4 36 10 50 8 22 16 26 50 26 23 0 51 5
63 12 12 7 49 13 82 15 83 5 85 5 85 17 0 21 -40 76 -55 76 -8 0 -23 -8 -33
-18 -18 -18 -19 -18 -40 5 -23 26 -42 29 -60 11z m56 -29 c10 -16 11 -24 1
-35 -10 -13 -14 -12 -30 2 -11 10 -19 25 -19 36 0 25 32 23 48 -3z m102 -15
c6 -14 10 -26 10 -28 0 -1 -23 -3 -51 -5 l-51 -2 22 30 c26 38 57 40 70 5z"/>
<path d="M4117 1339 c-86 -67 -31 -207 76 -197 26 2 35 -2 49 -24 20 -31 45
-39 33 -10 -16 37 -16 62 -1 84 31 43 15 117 -32 156 -25 19 -96 15 -125 -9z
m31 -5 c-15 -8 -32 -23 -38 -34 -15 -28 -12 -82 6 -110 l16 -25 -21 24 c-32
36 -28 95 8 132 16 16 35 29 43 29 7 -1 1 -7 -14 -16z m82 1 c37 -19 56 -73
41 -117 -13 -38 -47 -68 -75 -68 -18 1 -16 3 9 16 41 22 55 42 55 82 0 45 -16
71 -53 87 -18 8 -26 14 -19 15 7 0 26 -7 42 -15z m-5 -30 c49 -48 20 -125 -47
-125 -42 0 -68 25 -68 67 0 39 37 83 70 83 12 0 32 -11 45 -25z"/>
<path d="M430 1339 c0 -19 51 -140 83 -195 51 -89 49 -61 -4 42 -26 53 -51
112 -55 130 -6 31 -24 49 -24 23z"/>
<path d="M2395 1332 c-6 -4 -16 -27 -22 -52 -6 -25 -15 -53 -18 -62 -4 -10 -3
-18 3 -18 12 0 32 61 32 98 0 24 28 30 48 10 34 -34 -4 -152 -54 -164 -33 -8
-74 3 -74 21 0 8 -4 15 -10 15 -18 0 -10 -29 12 -44 89 -63 211 102 133 179
-26 26 -34 29 -50 17z"/>
<path d="M3738 1315 c-6 -30 -3 -43 8 -33 3 4 4 19 2 35 l-3 28 -7 -30z"/>
<path d="M4939 1297 c-46 -30 -82 -104 -74 -149 4 -19 10 -41 15 -48 15 -24
20 -6 8 26 -23 63 14 143 79 171 40 16 69 10 83 -18 15 -26 5 -39 -31 -39 -63
0 -90 -70 -44 -115 27 -28 60 -31 110 -11 55 23 62 109 10 122 -17 4 -25 13
-25 29 0 54 -72 72 -131 32z m86 -87 c-10 -11 -15 -23 -11 -27 4 -4 17 6 30
21 27 34 62 29 72 -10 14 -56 -87 -101 -130 -58 -27 26 -19 74 14 87 34 13 44
8 25 -13z"/>
<path d="M5622 1295 c-36 -30 -47 -70 -32 -111 12 -32 26 -44 53 -44 18 0 57
33 57 49 0 17 -30 40 -45 35 -22 -9 -18 -23 5 -17 28 8 27 -33 -2 -48 -18 -10
-24 -8 -40 11 -29 36 -23 78 18 116 41 39 30 46 -14 9z"/>
<path d="M3482 1267 c-26 -54 -40 -123 -23 -113 6 4 11 17 11 30 0 12 11 45
25 72 28 56 28 54 16 54 -5 0 -18 -19 -29 -43z"/>
<path d="M5907 1303 c-4 -3 -7 -13 -7 -22 1 -13 3 -13 11 2 11 19 8 33 -4 20z"/>
<path d="M1405 1270 c4 -13 1 -22 -9 -26 -17 -6 -22 -24 -8 -24 5 0 16 6 26
13 19 14 15 57 -5 57 -6 0 -7 -9 -4 -20z"/>
<path d="M3860 1271 c-13 -25 -13 -34 0 -26 16 10 32 45 21 45 -6 0 -15 -9
-21 -19z"/>
<path d="M5780 1270 c-11 -11 -20 -25 -20 -31 0 -22 22 -50 46 -59 21 -8 24
-16 24 -55 0 -52 -37 -133 -70 -153 -15 -9 -42 -11 -94 -6 -58 5 -79 3 -105
-11 -43 -22 -164 -31 -218 -16 -31 9 -47 20 -58 41 -9 17 -20 30 -26 30 -16 0
19 -58 45 -76 34 -21 212 -15 276 10 39 15 52 16 98 6 46 -10 56 -9 85 7 47
27 81 95 83 164 0 34 8 66 17 80 22 30 21 41 -3 67 -26 27 -54 28 -80 2z m74
-22 c23 -37 -36 -77 -63 -44 -8 10 -11 26 -7 42 5 20 12 25 33 22 14 -2 31
-11 37 -20z"/>
<path d="M5946 1283 c-13 -14 -5 -33 14 -33 11 0 20 6 20 14 0 15 -24 28 -34
19z"/>
<path d="M3580 1269 c0 -16 27 -46 35 -38 2 2 -5 15 -15 29 -15 19 -20 21 -20
9z"/>
<path d="M387 1254 c-7 -7 19 -82 34 -101 22 -26 28 -12 9 20 -11 17 -20 42
-20 54 0 22 -13 37 -23 27z"/>
<path d="M3088 1255 c-10 -10 7 -58 21 -63 9 -3 11 0 6 7 -4 7 -10 24 -14 37
-3 14 -9 22 -13 19z"/>
<path d="M1314 1235 c-4 -9 -1 -22 5 -28 9 -9 13 -6 17 11 4 12 10 19 16 16 5
-3 6 -14 3 -25 -4 -11 -2 -19 5 -19 6 0 10 12 8 28 -4 32 -44 45 -54 17z"/>
<path d="M3920 1225 c-13 -14 -20 -25 -16 -25 12 0 56 32 56 41 0 16 -16 10
-40 -16z"/>
<path d="M1057 1226 c-7 -17 18 -40 33 -31 5 3 10 15 10 26 0 23 -35 27 -43 5z
m33 -6 c0 -5 -4 -10 -10 -10 -5 0 -10 5 -10 10 0 6 5 10 10 10 6 0 10 -4 10
-10z"/>
<path d="M3694 1227 c-52 -15 -75 -33 -108 -81 -46 -68 -34 -123 50 -241 30
-41 34 -55 28 -80 -14 -59 1 -115 32 -115 4 0 15 -7 25 -16 17 -15 21 -14 60
17 l41 33 -6 57 c-5 57 -5 59 38 109 66 78 83 158 47 228 -23 46 -46 67 -94
87 -42 17 -57 18 -113 2z m126 -22 c47 -24 80 -82 80 -138 0 -59 -16 -99 -64
-155 -20 -24 -36 -52 -36 -63 0 -10 -4 -19 -10 -19 -17 0 -11 47 15 116 39
103 31 149 -24 135 -29 -8 -48 -7 -103 4 -54 10 -58 -16 -14 -112 37 -85 49
-144 29 -150 -9 -3 -13 6 -13 24 0 19 -16 51 -46 91 -25 33 -49 74 -54 91 -17
61 30 149 95 177 41 18 110 17 145 -1z m-143 -146 c6 -21 7 -21 20 -4 12 17
13 17 13 2 0 -20 16 -23 24 -4 5 9 7 9 12 -2 5 -11 8 -11 15 0 8 12 11 11 19
-1 8 -13 10 -12 10 3 0 9 5 17 10 17 20 0 22 -31 5 -78 -9 -26 -23 -67 -30
-92 l-14 -45 0 57 c-1 31 4 60 9 63 6 3 10 13 10 21 0 12 -10 14 -42 12 -32
-2 -42 -7 -39 -18 8 -32 18 -90 16 -90 -9 0 -65 136 -65 156 0 30 20 32 27 3z
m79 -75 c-3 -9 -6 -49 -6 -90 0 -41 -4 -74 -9 -74 -5 0 -11 33 -13 73 -3 39
-8 80 -12 90 -7 14 -3 17 19 17 21 0 26 -4 21 -16z m50 -177 c4 -4 -26 -6 -67
-5 -69 1 -70 2 -24 7 61 7 83 7 91 -2z m4 -26 c0 -11 -59 -18 -105 -13 -61 7
-38 22 35 22 39 0 70 -4 70 -9z m-5 -31 c-3 -5 -36 -9 -73 -8 -64 1 -65 1 -22
8 71 11 102 11 95 0z m-42 -27 c-13 -2 -33 -2 -45 0 -13 2 -3 4 22 4 25 0 35
-2 23 -4z"/>
<path d="M3540 1212 c0 -10 21 -32 32 -32 16 0 8 19 -12 30 -11 6 -20 7 -20 2z"/>
<path d="M885 1156 c-61 -28 -87 -56 -114 -119 -25 -59 -53 -62 -61 -7 -5 32
-7 33 -14 12 -7 -21 14 -72 30 -72 20 0 45 27 68 75 31 63 80 102 139 112 20
3 40 10 43 14 10 17 -42 9 -91 -15z"/>
<path d="M1865 1161 c-62 -38 -83 -81 -65 -136 32 -96 141 -114 198 -31 40 58
19 143 -42 165 -52 20 -62 20 -91 2z m48 -8 c-7 -2 -19 -2 -25 0 -7 3 -2 5 12
5 14 0 19 -2 13 -5z m59 -28 c-2 -9 1 -14 6 -11 6 3 9 -17 7 -50 -1 -37 1 -51
7 -42 8 10 9 10 6 0 -6 -24 -23 -13 -24 16 -1 16 -5 42 -9 58 -14 49 -14 55
-2 51 7 -2 11 -12 9 -22z m-28 -7 c21 -29 21 -102 0 -122 -22 -23 -64 -20 -91
6 -13 12 -23 17 -23 10 0 -6 12 -20 26 -31 15 -12 22 -21 17 -21 -5 0 -19 10
-30 23 -18 19 -20 29 -13 71 12 78 79 115 114 64z m-112 -10 c-7 -7 -13 -28
-14 -47 l-1 -36 -4 32 c-4 32 13 80 25 69 3 -4 0 -12 -6 -18z m175 -60 c-3 -8
-6 -5 -6 6 -1 11 2 17 5 13 3 -3 4 -12 1 -19z m-41 -73 c-11 -8 -29 -15 -40
-15 -17 1 -15 4 9 15 40 18 55 18 31 0z"/>
<path d="M3130 1170 c0 -5 5 -10 10 -10 6 0 10 5 10 10 0 6 -4 10 -10 10 -5 0
-10 -4 -10 -10z"/>
<path d="M52 1150 c-12 -12 -22 -25 -22 -30 0 -5 -8 -10 -17 -12 -15 -3 -14
-5 4 -10 18 -5 26 0 35 20 16 34 70 42 99 16 18 -16 20 -16 37 -1 46 42 111 0
97 -63 -7 -32 -38 -60 -67 -60 -13 0 -16 -6 -11 -34 11 -70 -73 -101 -120 -45
-16 20 -19 21 -35 5 -10 -9 -26 -16 -35 -16 -9 0 -17 -4 -17 -10 0 -14 23 -12
45 4 17 12 22 11 45 -6 58 -42 130 -16 130 48 0 27 6 36 30 49 56 29 68 98 25
140 -28 29 -51 31 -83 9 -20 -14 -24 -14 -44 0 -31 22 -70 20 -96 -4z"/>
<path d="M3170 1140 c0 -12 24 -12 60 0 21 7 19 8 -17 9 -24 1 -43 -3 -43 -9z"/>
<path d="M3983 1143 c-13 -2 -23 -9 -23 -15 0 -6 10 -8 23 -4 12 3 25 6 30 6
4 0 7 5 7 10 0 6 -3 9 -7 9 -5 -1 -18 -4 -30 -6z"/>
<path d="M4704 1117 c-24 -38 -41 -154 -18 -122 8 10 14 35 14 56 0 21 8 47
19 60 16 21 21 22 36 9 16 -13 16 -14 -2 -21 -13 -6 -10 -8 15 -8 39 -1 40 3
5 34 -36 32 -44 31 -69 -8z"/>
<path d="M5978 1125 c-9 -21 -9 -29 3 -40 13 -13 14 -10 14 25 0 22 -1 40 -2
40 -2 0 -9 -11 -15 -25z"/>
<path d="M4567 1123 c-10 -16 2 -43 19 -43 16 0 30 27 20 38 -4 3 -11 0 -16
-7 -6 -11 -9 -10 -12 5 -2 13 -6 15 -11 7z"/>
<path d="M640 1098 c0 -16 5 -28 10 -28 13 0 13 20 0 40 -8 12 -10 9 -10 -12z"/>
<path d="M1450 1088 c-65 -33 -93 -80 -86 -143 7 -68 7 -64 0 -121 l-6 -51 83
-8 c46 -4 109 -8 139 -9 55 -1 55 -1 76 41 12 23 38 57 58 76 29 28 36 42 36
73 0 79 -88 150 -201 160 -44 4 -63 1 -99 -18z m185 -22 c71 -33 109 -79 101
-125 -10 -65 -32 -76 -154 -75 -59 0 -126 6 -149 13 -36 10 -44 17 -52 46 -35
126 112 208 254 141z m-155 -227 c0 -5 5 -9 11 -9 5 0 7 5 4 10 -7 11 46 14
81 4 18 -5 21 -13 20 -45 -1 -37 -2 -40 -25 -34 -21 5 -172 25 -193 25 -4 0
-5 15 -2 33 10 58 9 57 59 41 25 -9 45 -20 45 -25z m168 -27 c-7 -15 -18 -34
-25 -42 -11 -12 -13 -8 -13 27 0 31 4 43 18 46 27 6 32 -2 20 -31z"/>
<path d="M1552 1025 c-7 -14 -12 -30 -12 -35 0 -17 17 -11 23 8 2 9 8 25 12
35 11 27 -11 20 -23 -8z"/>
<path d="M1446 1015 c-3 -9 1 -18 10 -22 19 -7 39 11 30 26 -10 16 -33 13 -40
-4z"/>
<path d="M1592 988 c2 -13 8 -23 13 -23 6 0 11 10 13 23 2 15 -2 22 -13 22
-11 0 -15 -7 -13 -22z"/>
<path d="M1667 984 c-4 -4 -7 -16 -7 -26 0 -20 25 -25 36 -7 8 13 -19 43 -29
33z"/>
<path d="M1416 952 c18 -17 150 -52 192 -52 59 0 52 15 -8 18 -28 1 -77 11
-110 22 -63 21 -90 26 -74 12z"/>
<path d="M1450 799 c0 -5 5 -7 10 -4 6 3 10 8 10 11 0 2 -4 4 -10 4 -5 0 -10
-5 -10 -11z"/>
<path d="M1480 800 c0 -5 5 -10 10 -10 6 0 10 5 10 10 0 6 -4 10 -10 10 -5 0
-10 -4 -10 -10z"/>
<path d="M1525 790 c3 -5 8 -10 11 -10 2 0 4 5 4 10 0 6 -5 10 -11 10 -5 0 -7
-4 -4 -10z"/>
<path d="M4655 1100 c-3 -5 -1 -10 4 -10 6 0 11 5 11 10 0 6 -2 10 -4 10 -3 0
-8 -4 -11 -10z"/>
<path d="M2133 1083 c-27 -10 -11 -21 17 -12 16 6 57 9 90 7 33 -1 60 0 60 5
0 8 -147 8 -167 0z"/>
<path d="M385 1055 c-48 -47 -29 -82 68 -132 61 -31 82 -37 137 -37 48 -1 74
4 94 17 36 24 27 33 -13 13 -41 -22 -54 -21 -40 2 9 14 8 25 -4 48 -13 25 -25
32 -74 42 -47 9 -64 18 -81 42 -27 36 -55 38 -87 5z m84 -24 c18 -20 45 -33
84 -41 61 -14 73 -28 62 -73 -6 -23 -11 -25 -43 -20 -21 3 -71 22 -112 43 -60
30 -76 42 -78 62 -3 28 20 58 45 58 8 0 27 -13 42 -29z"/>
<path d="M430 1015 c-14 -17 -5 -35 17 -35 12 0 13 3 4 14 -9 11 -9 15 1 18 8
3 9 6 1 11 -6 4 -16 0 -23 -8z"/>
<path d="M4330 1070 c0 -5 14 -10 31 -10 17 0 28 4 24 10 -3 6 -17 10 -31 10
-13 0 -24 -4 -24 -10z"/>
<path d="M3474 1059 c-3 -5 6 -9 20 -9 31 0 34 6 6 13 -11 3 -23 1 -26 -4z"/>
<path d="M4470 1051 c-15 -30 -12 -59 8 -65 9 -3 50 -8 91 -11 46 -3 80 -10
91 -20 19 -17 40 -20 40 -5 0 15 -35 30 -85 37 l-46 6 21 22 c33 35 23 39 -15
6 -28 -25 -42 -30 -63 -25 -36 9 -44 17 -36 38 5 13 13 16 32 11 22 -5 24 -4
13 9 -18 22 -38 20 -51 -3z"/>
<path d="M13 1044 c-8 -22 5 -30 23 -12 14 14 14 16 -1 21 -9 4 -18 1 -22 -9z"/>
<path d="M70 1040 c0 -11 7 -20 15 -20 8 0 15 9 15 20 0 11 -7 20 -15 20 -8 0
-15 -9 -15 -20z"/>
<path d="M1047 1053 c-4 -3 -7 -27 -7 -52 0 -46 29 -111 50 -111 6 0 0 14 -12
31 -18 23 -23 44 -22 85 0 30 -1 54 -1 54 -1 0 -5 -3 -8 -7z"/>
<path d="M5529 1045 c-25 -13 -45 -43 -35 -52 2 -2 17 10 34 27 30 30 65 39
77 20 4 -6 11 -8 16 -4 17 10 -2 24 -34 24 -18 -1 -44 -7 -58 -15z"/>
<path d="M960 995 c0 -54 25 -125 51 -140 21 -13 22 5 2 28 -27 28 -46 100
-38 138 4 18 3 29 -4 29 -7 0 -11 -22 -11 -55z"/>
<path d="M1118 1044 c-13 -13 -9 -74 8 -105 8 -17 18 -28 21 -25 4 3 1 16 -5
29 -6 12 -13 42 -14 65 -2 24 -6 40 -10 36z"/>
<path d="M1180 1018 c0 -50 11 -78 28 -78 12 0 13 3 4 12 -7 7 -12 31 -12 55
0 24 -4 43 -10 43 -5 0 -10 -15 -10 -32z"/>
<path d="M4181 1034 c-49 -21 -35 -25 29 -8 57 15 96 12 142 -12 15 -8 29 -10
32 -5 9 14 -71 41 -122 41 -26 -1 -62 -7 -81 -16z"/>
<path d="M5066 1031 c-3 -5 8 -11 25 -15 17 -3 44 -20 60 -37 16 -18 32 -30
34 -27 10 10 -39 61 -71 74 -39 16 -41 17 -48 5z"/>
<path d="M2144 1020 c-11 -4 -33 -22 -47 -40 -57 -68 -17 -150 73 -150 35 0
80 38 80 67 0 49 -61 82 -90 48 -14 -17 -10 -47 9 -53 10 -3 11 2 6 18 -9 27
11 43 37 29 21 -11 24 -48 6 -72 -7 -9 -27 -20 -45 -23 -27 -5 -37 -1 -64 25
-25 26 -30 37 -24 59 16 65 76 96 168 86 34 -4 68 -11 74 -16 20 -16 26 -73
13 -115 -35 -108 -141 -169 -238 -137 -54 19 -69 10 -19 -11 128 -53 276 51
277 196 0 32 -6 54 -21 73 -19 24 -26 26 -97 25 -42 0 -86 -4 -98 -9z"/>
<path d="M3960 1010 c0 -5 4 -10 9 -10 5 0 18 -3 28 -6 16 -5 16 -4 -1 10 -23
18 -36 20 -36 6z"/>
<path d="M3436 983 c-16 -80 -18 -103 -8 -103 5 0 13 21 17 48 4 26 11 55 16
65 7 12 6 17 -5 17 -8 0 -17 -12 -20 -27z"/>
<path d="M4063 970 c-3 -42 -25 -92 -79 -178 -19 -29 -34 -55 -34 -58 0 -26
87 106 118 179 13 31 16 97 5 97 -5 0 -9 -18 -10 -40z"/>
<path d="M4790 997 c-14 -7 -37 -36 -52 -67 -24 -47 -27 -65 -25 -130 l2 -75
77 -14 c43 -7 76 -17 73 -22 -9 -14 102 -41 136 -34 66 15 148 119 149 187 0
40 -43 81 -133 128 -67 34 -87 40 -140 40 -34 0 -73 -6 -87 -13z m235 -49 c94
-55 105 -65 105 -104 0 -65 -84 -67 -300 -7 -52 14 -97 27 -99 29 -1 1 8 28
22 58 20 43 32 57 54 62 15 3 33 7 38 9 32 12 116 -10 180 -47z m-146 -139
c119 -30 209 -37 229 -17 16 16 15 3 -3 -31 -18 -36 -69 -79 -101 -87 -13 -3
-45 -3 -69 1 -35 5 -45 10 -43 23 2 12 -6 17 -32 19 -66 5 -80 12 -80 38 0 28
0 28 32 16 44 -16 78 -21 78 -12 0 9 -83 31 -115 31 -10 0 -15 -10 -15 -30 0
-16 -4 -30 -10 -30 -16 0 -30 37 -30 81 0 38 2 41 23 35 12 -4 73 -20 136 -37z"/>
<path d="M4866 941 c-25 -28 -17 -63 18 -80 40 -19 79 2 84 44 6 51 -66 76
-102 36z m80 -12 c12 -14 13 -22 4 -39 -16 -31 -74 -25 -78 8 -7 47 42 67 74
31z"/>
<path d="M4887 933 c-14 -13 -6 -42 13 -48 26 -8 47 4 29 16 -12 8 -11 11 1
19 9 6 10 10 3 10 -7 0 -16 -8 -22 -17 -5 -10 -13 -15 -17 -11 -4 4 -1 14 6
23 12 14 0 22 -13 8z"/>
<path d="M4783 943 c-21 -7 -15 -33 7 -33 11 0 20 6 20 14 0 18 -11 25 -27 19z"/>
<path d="M5010 860 c0 -13 7 -20 20 -20 13 0 20 7 20 20 0 13 -7 20 -20 20
-13 0 -20 -7 -20 -20z m30 0 c0 -5 -5 -10 -11 -10 -5 0 -7 5 -4 10 3 6 8 10
11 10 2 0 4 -4 4 -10z"/>
<path d="M4985 750 c-19 -5 -23 -8 -10 -9 23 -1 13 -13 -30 -35 -25 -13 -26
-16 -9 -16 11 0 38 16 60 35 40 35 39 38 -11 25z"/>
<path d="M2441 986 c-7 -8 -11 -23 -8 -33 4 -16 6 -15 12 5 4 12 14 22 22 22
10 0 13 -6 9 -15 -3 -8 -9 -21 -12 -29 -4 -10 2 -12 21 -9 21 4 24 2 19 -11
-4 -12 -16 -16 -34 -14 -48 5 -78 -40 -48 -70 25 -25 79 -3 83 34 1 10 6 27
10 37 9 22 -2 50 -18 44 -8 -3 -13 4 -12 21 0 31 -25 41 -44 18z m44 -121 c0
-14 -8 -21 -27 -23 -22 -3 -28 1 -28 16 0 25 10 33 35 30 12 -2 20 -10 20 -23z"/>
<path d="M4191 965 c-42 -19 -36 -29 8 -14 53 19 143 7 191 -25 23 -15 40 -22
38 -14 -3 7 -23 24 -47 36 -54 31 -143 38 -190 17z"/>
<path d="M5872 946 c-20 -19 -33 -38 -29 -42 4 -4 14 2 23 14 20 28 50 44 99
53 l40 6 -48 2 c-41 1 -52 -4 -85 -33z"/>
<path d="M3945 960 c3 -5 8 -10 11 -10 2 0 4 5 4 10 0 6 -5 10 -11 10 -5 0 -7
-4 -4 -10z"/>
<path d="M1257 954 c-9 -10 11 -44 27 -44 17 0 38 24 29 33 -3 4 -12 -1 -19
-11 -12 -16 -13 -15 -21 6 -5 13 -12 20 -16 16z"/>
<path d="M3530 910 c-16 -13 -20 -20 -10 -19 16 0 50 22 50 33 0 11 -14 6 -40
-14z"/>
<path d="M1970 917 c0 -16 29 -63 49 -81 29 -26 26 -12 -6 32 -36 50 -43 57
-43 49z"/>
<path d="M672 842 c-152 -52 -192 -70 -189 -82 3 -8 29 -83 59 -165 72 -198
123 -295 165 -315 30 -14 33 -19 33 -62 0 -36 4 -48 15 -48 16 0 21 25 7 34
-17 11 0 64 24 75 23 10 24 9 25 -22 1 -17 0 -38 -1 -46 -2 -18 13 -12 107 46
77 48 79 49 98 30 19 -18 20 -18 24 -1 2 10 -7 26 -19 36 -22 18 -23 18 -39 0
-17 -20 -140 -96 -145 -91 -2 2 -6 18 -9 34 -5 29 -3 32 79 75 61 31 84 48 81
60 -3 8 -22 73 -42 145 -62 218 -87 295 -96 295 -11 0 -308 -106 -315 -112 -5
-6 43 -137 56 -151 5 -6 275 95 288 108 2 2 1 9 -3 15 -5 8 -12 7 -23 -3 -25
-21 -245 -108 -253 -99 -16 15 -50 115 -42 122 9 8 270 100 283 100 4 0 6 -9
3 -20 -3 -11 -1 -20 5 -20 11 0 38 -77 72 -209 12 -46 24 -90 26 -96 3 -7 -10
-18 -28 -25 -18 -8 -82 -37 -141 -66 l-108 -53 -20 45 c-10 24 -28 65 -40 92
-38 87 -109 294 -103 303 3 5 14 9 24 9 10 0 91 25 180 56 89 31 163 54 165
52 2 -1 18 -41 35 -87 28 -71 31 -87 20 -104 -10 -17 -10 -19 5 -13 9 3 19 6
21 6 10 0 2 32 -33 123 -20 53 -41 96 -47 96 -6 -1 -98 -31 -204 -67z m292
-418 c9 -33 10 -32 -95 -88 -90 -49 -139 -57 -175 -32 -10 8 -17 16 -14 18 9
6 265 126 271 127 4 1 10 -11 13 -25z"/>
<path d="M3020 895 c0 -8 5 -15 10 -15 6 0 10 7 10 15 0 8 -4 15 -10 15 -5 0
-10 -7 -10 -15z"/>
<path d="M4155 892 c-43 -28 -64 -54 -84 -108 l-18 -47 51 -53 c65 -64 111
-76 179 -46 61 27 82 62 82 134 0 53 -3 61 -37 94 -31 32 -44 38 -90 41 -40 3
-60 -1 -83 -15z m105 -2 c30 0 79 -49 90 -90 30 -111 -97 -201 -197 -140 -43
26 -58 56 -44 87 13 29 14 43 2 43 -4 0 -13 -15 -19 -32 l-12 -33 5 39 c8 68
94 147 143 130 8 -2 22 -4 32 -4z"/>
<path d="M4210 850 c-8 -15 -8 -25 -1 -34 8 -10 7 -17 -4 -26 -8 -7 -15 -19
-15 -26 0 -17 47 -37 67 -30 23 9 14 22 -14 21 -18 0 -28 5 -28 15 0 8 6 15
14 15 8 0 16 6 19 13 2 6 -3 12 -12 12 -9 0 -16 8 -16 18 0 26 11 34 28 19 13
-10 14 -9 10 3 -7 23 -35 23 -48 0z"/>
<path d="M3892 864 c-13 -20 -21 -38 -19 -40 4 -5 57 60 57 70 0 16 -17 2 -38
-30z"/>
<path d="M374 844 c-36 -62 -42 -119 -16 -177 20 -45 20 -46 1 -84 -22 -42
-25 -114 -7 -146 7 -12 13 -48 13 -79 0 -65 22 -104 71 -127 17 -7 35 -26 41
-42 21 -54 112 -87 164 -59 32 17 21 30 -11 13 -39 -19 -89 -4 -125 39 l-26
31 40 18 c60 26 72 99 17 99 -27 0 -66 -42 -66 -71 0 -21 -12 -24 -41 -9 -27
15 -49 63 -49 109 l0 40 36 -6 c57 -9 110 31 83 63 -18 21 -54 17 -88 -11
l-30 -26 -11 21 c-17 31 -14 103 4 139 15 27 19 29 40 20 32 -15 68 4 64 34
-3 25 -43 36 -61 18 -19 -19 -35 -12 -46 20 -23 65 -7 155 32 188 19 15 22 31
7 31 -5 0 -21 -21 -36 -46z m89 -200 c12 -12 -6 -34 -28 -34 -31 0 -40 16 -18
29 21 12 37 14 46 5z m27 -203 c0 -14 -25 -31 -58 -37 -38 -8 -42 8 -10 30 24
17 68 22 68 7z m67 -137 c6 -17 -29 -60 -58 -67 -28 -7 -25 28 6 58 28 29 43
31 52 9z"/>
<path d="M1863 878 c129 -27 130 -190 2 -214 -72 -13 -126 30 -111 89 13 54
106 73 121 26 10 -32 -19 -58 -45 -41 -16 10 -20 10 -20 -2 0 -35 59 -25 80
14 32 59 -69 96 -126 46 -37 -31 -38 -84 -4 -121 19 -20 33 -25 72 -25 60 0
103 21 128 63 24 39 25 68 4 113 -20 42 -60 64 -111 63 l-38 -1 48 -10z"/>
<path d="M4510 880 c0 -6 11 -8 24 -4 34 8 76 -34 76 -76 0 -48 -47 -90 -99
-90 -34 0 -43 4 -53 25 -17 38 4 77 40 73 30 -3 39 -34 10 -32 -19 2 -24 -11
-8 -21 13 -8 50 31 50 54 0 27 -10 51 -22 51 -5 0 -7 -8 -3 -19 4 -15 1 -18
-18 -14 -60 12 -96 -79 -48 -119 45 -36 124 -10 156 51 21 42 19 65 -11 100
-19 24 -34 31 -60 31 -19 0 -34 -5 -34 -10z"/>
<path d="M3051 856 c-1 -37 19 -106 32 -106 5 0 6 8 2 18 -4 9 -13 40 -20 67
-10 39 -13 44 -14 21z"/>
<path d="M5949 857 c-74 -49 -86 -134 -30 -214 17 -24 25 -43 18 -43 -8 0 -7
-4 3 -10 20 -13 60 -13 60 0 0 6 -6 10 -13 10 -32 0 -87 89 -87 141 0 42 33
94 70 109 17 7 30 16 30 21 0 14 -15 10 -51 -14z"/>
<path d="M5572 858 c-26 -13 -37 -46 -29 -94 3 -18 2 -34 -4 -34 -5 0 -9 4 -9
9 0 6 -25 28 -57 50 -42 31 -66 41 -95 41 -58 0 -113 -33 -166 -101 -48 -62
-63 -87 -44 -75 6 3 32 -33 60 -86 28 -51 66 -117 86 -145 20 -29 33 -53 29
-53 -16 0 -72 46 -88 72 -15 27 -44 42 -29 16 27 -49 59 -78 101 -94 27 -9 55
-23 63 -30 30 -25 69 -26 150 -5 93 25 146 46 155 61 4 6 -2 34 -13 63 -12 29
-28 77 -36 108 -9 31 -31 76 -51 100 -31 39 -35 50 -35 105 0 33 5 65 12 72
17 17 113 15 127 -2 18 -22 51 -126 58 -183 3 -30 10 -56 14 -59 13 -8 11 29
-7 108 -21 93 -39 133 -66 152 -26 18 -92 20 -126 4z m-101 -87 c53 -41 141
-150 152 -189 4 -15 19 -62 33 -106 16 -48 22 -82 16 -88 -8 -8 -224 -69 -229
-64 -5 4 24 112 35 132 15 28 -16 142 -64 234 -54 105 -57 118 -31 122 27 5
32 2 88 -41z m-117 14 c9 -37 -4 -53 -20 -24 -17 31 -17 49 0 49 8 0 17 -11
20 -25z m-49 5 c-3 -5 -11 -10 -16 -10 -6 0 -7 5 -4 10 3 6 11 10 16 10 6 0 7
-4 4 -10z m15 -31 c0 -18 100 -222 106 -217 3 4 -13 45 -36 93 -30 62 -39 90
-31 98 13 13 13 14 46 -58 51 -111 73 -227 45 -237 -6 -2 -13 -25 -15 -52 -2
-26 -6 -50 -8 -52 -9 -9 -66 48 -100 99 -19 28 -58 95 -87 146 l-52 95 56 54
c50 48 76 59 76 31z"/>
<path d="M285 817 c-16 -40 -21 -157 -6 -157 6 0 9 27 9 60 0 32 5 73 12 90 7
17 10 33 6 37 -3 3 -13 -10 -21 -30z"/>
<path d="M5641 801 c22 -46 55 -165 64 -233 3 -27 11 -48 16 -48 6 0 8 18 5
43 -12 92 -75 277 -95 277 -5 0 -1 -18 10 -39z"/>
<path d="M250 820 c0 -5 5 -10 10 -10 6 0 10 5 10 10 0 6 -4 10 -10 10 -5 0
-10 -4 -10 -10z"/>
<path d="M173 794 c-8 -20 17 -36 34 -22 10 8 10 14 2 24 -15 18 -28 18 -36
-2z"/>
<path d="M3356 798 c-11 -25 11 -85 41 -108 58 -46 143 -11 143 58 0 39 -37
67 -74 58 -31 -8 -44 -43 -22 -64 14 -14 15 -13 13 14 -2 25 2 29 25 32 39 5
58 -36 34 -72 -45 -70 -134 -26 -149 74 -3 21 -5 22 -11 8z"/>
<path d="M64 785 c-7 -18 3 -35 21 -35 15 0 24 19 18 38 -6 17 -32 15 -39 -3z
m26 -5 c0 -5 -5 -10 -11 -10 -5 0 -7 5 -4 10 3 6 8 10 11 10 2 0 4 -4 4 -10z"/>
<path d="M2547 785 c-27 -7 -54 -18 -60 -25 -10 -10 -8 -12 8 -6 91 33 99 32
192 -11 109 -51 133 -56 185 -42 43 11 108 66 108 91 0 7 -12 -2 -27 -21 -53
-68 -130 -78 -225 -30 -104 52 -126 58 -181 44z"/>
<path d="M5962 784 c-16 -11 -22 -25 -21 -52 l1 -37 7 31 c10 41 19 54 37 54
8 0 14 5 14 10 0 14 -12 12 -38 -6z"/>
<path d="M2370 764 c0 -83 77 -125 163 -89 72 30 128 12 164 -52 28 -50 60
-78 104 -92 43 -14 68 -9 163 31 50 22 87 30 136 31 85 2 82 17 -3 17 -48 0
-82 -8 -147 -35 -46 -19 -97 -35 -113 -35 -45 0 -85 27 -118 79 -51 84 -99
102 -186 71 -73 -25 -75 -25 -112 6 -24 19 -31 34 -31 60 0 19 -4 34 -10 34
-5 0 -10 -12 -10 -26z"/>
<path d="M1110 758 c-61 -32 -85 -68 -84 -128 2 -161 234 -259 357 -150 39 34
61 97 51 143 -4 18 -6 44 -6 60 1 30 -12 36 -22 10 -3 -10 -9 -24 -12 -32 -4
-8 -2 -11 4 -7 14 9 26 -55 17 -91 -16 -69 -81 -112 -166 -113 -101 0 -209 92
-209 179 0 70 63 131 133 131 46 0 71 -55 47 -101 -13 -24 -2 -25 16 -1 30 38
10 92 -40 112 -36 13 -35 13 -86 -12z"/>
<path d="M3867 774 c-4 -4 -7 -14 -7 -23 0 -11 3 -12 11 -4 6 6 10 16 7 23 -2
6 -7 8 -11 4z"/>
<path d="M810 750 c0 -5 7 -10 16 -10 8 0 12 5 9 10 -3 6 -10 10 -16 10 -5 0
-9 -4 -9 -10z"/>
<path d="M747 730 c3 -11 9 -20 14 -20 11 0 11 3 3 24 -9 23 -23 20 -17 -4z"/>
<path d="M780 736 c0 -9 5 -16 10 -16 6 0 10 4 10 9 0 6 -4 13 -10 16 -5 3
-10 -1 -10 -9z"/>
<path d="M5965 727 c-7 -18 9 -47 27 -47 7 0 7 4 0 13 -5 6 -12 21 -14 32 -5
18 -6 19 -13 2z"/>
<path d="M1471 725 c0 -18 26 -45 43 -45 9 0 16 8 16 20 0 11 -5 20 -11 20 -6
0 -9 -7 -5 -15 8 -22 -3 -18 -25 8 -10 12 -18 18 -18 12z"/>
<path d="M600 698 c1 -33 25 -74 35 -59 4 7 0 20 -9 30 -29 32 -17 33 17 2 41
-39 51 -39 43 0 -3 17 -6 35 -6 40 0 5 -4 9 -10 9 -5 0 -7 -14 -3 -32 l6 -33
-27 33 c-33 38 -46 41 -46 10z"/>
<path d="M1140 705 c-11 -13 -9 -15 11 -13 21 3 24 -1 24 -31 0 -45 19 -51 22
-7 2 21 -3 41 -13 50 -19 20 -28 20 -44 1z"/>
<path d="M3593 673 c4 -34 -1 -44 -44 -92 -50 -56 -61 -87 -35 -97 21 -8 54
13 71 46 16 32 35 147 28 168 -11 26 -23 10 -20 -25z m-13 -117 c-13 -40 -32
-59 -55 -54 -14 2 -10 12 20 51 41 54 53 55 35 3z"/>
<path d="M25 690 c-4 -6 11 -10 37 -10 52 0 104 -25 132 -63 16 -22 22 -49 26
-116 4 -64 2 -87 -6 -84 -7 2 -15 0 -18 -5 -3 -5 3 -12 14 -15 24 -6 26 -43 5
-71 -16 -21 -21 -126 -7 -126 4 0 6 15 4 33 -2 18 4 51 13 73 17 38 28 124 16
124 -3 0 -4 27 -3 61 5 76 -1 99 -35 140 -44 52 -159 90 -178 59z"/>
<path d="M1090 656 c0 -87 122 -146 210 -101 41 21 88 85 63 85 -5 0 -15 -13
-24 -29 -24 -41 -93 -66 -146 -52 -54 15 -87 52 -86 96 1 19 -3 35 -8 35 -5 0
-9 -15 -9 -34z"/>
<path d="M3040 674 c-68 -27 -101 -45 -96 -52 3 -5 28 2 55 15 54 27 132 33
157 12 18 -14 32 -3 16 13 -12 12 -108 21 -132 12z"/>
<path d="M2035 660 c-57 -12 -153 -49 -161 -62 -5 -8 -1 -9 12 -3 91 38 171
55 254 55 153 0 240 -27 259 -80 32 -94 -49 -201 -182 -242 -132 -40 -283 -9
-351 72 -14 17 -26 42 -26 55 0 31 45 68 117 96 77 30 232 38 286 16 83 -35
66 -113 -34 -155 -45 -19 -68 -22 -135 -19 -94 4 -137 24 -132 60 10 69 278
108 278 41 0 -22 -41 -35 -65 -19 -26 16 -120 8 -136 -11 -15 -18 -4 -44 18
-44 17 1 17 1 0 15 -18 13 -18 14 2 25 17 9 21 8 21 -5 0 -17 55 -22 65 -5 3
6 1 10 -5 10 -6 0 -8 5 -5 11 5 7 13 5 25 -6 24 -22 69 -16 87 11 12 19 11 24
-6 45 -17 22 -26 24 -93 22 -127 -2 -227 -59 -199 -112 31 -57 166 -78 266
-40 77 29 115 66 115 111 0 109 -213 133 -398 46 -99 -47 -114 -97 -48 -166
43 -47 92 -70 174 -82 198 -31 382 82 382 233 0 60 -27 92 -93 112 -61 19
-235 28 -292 15z m60 -200 c3 -5 -1 -10 -10 -10 -9 0 -13 5 -10 10 3 6 8 10
10 10 2 0 7 -4 10 -10z"/>
<path d="M5965 660 c3 -5 13 -10 21 -10 8 0 12 5 9 10 -3 6 -13 10 -21 10 -8
0 -12 -4 -9 -10z"/>
<path d="M4708 642 c-25 -2 -52 -10 -58 -18 -7 -7 -28 -14 -47 -14 -26 0 -43
-8 -69 -34 -19 -19 -34 -43 -34 -54 0 -11 -7 -25 -16 -33 -36 -29 -44 -65 -38
-156 5 -67 11 -93 26 -110 23 -25 107 -48 138 -38 14 4 28 1 41 -11 10 -9 31
-16 46 -15 82 4 136 11 146 19 7 5 37 12 68 15 70 7 114 29 134 67 30 58 12
155 -35 180 -14 8 -20 21 -20 48 0 78 -80 148 -142 124 -22 -8 -30 -6 -43 8
-20 22 -37 26 -97 22z m90 -48 c27 -32 30 -34 35 -15 8 33 59 28 102 -10 30
-27 35 -37 35 -75 0 -38 5 -48 38 -78 34 -31 37 -39 35 -82 -3 -78 -30 -108
-116 -128 -27 -6 -27 -5 -16 16 11 20 8 25 -18 45 -24 19 -29 29 -25 53 3 19
10 30 21 30 9 0 23 5 31 11 12 8 8 9 -16 5 -28 -4 -33 -1 -48 30 -16 35 -16
36 6 54 13 11 19 19 14 20 -5 0 -17 -7 -27 -16 -16 -14 -20 -14 -43 1 -38 25
-115 24 -157 -3 l-35 -21 -22 22 c-12 12 -22 16 -22 10 0 -7 10 -19 22 -27 17
-12 20 -18 10 -28 -14 -14 -16 -86 -3 -107 7 -10 2 -24 -15 -44 -14 -16 -22
-32 -20 -35 3 -3 15 7 27 22 21 26 21 26 45 7 50 -40 160 -34 200 10 15 17 18
17 40 2 13 -8 24 -21 24 -29 0 -17 -37 -37 -56 -30 -8 3 -14 -1 -14 -11 0 -13
-8 -15 -45 -10 -25 4 -47 2 -50 -3 -10 -17 -61 -11 -79 9 -13 14 -26 18 -55
14 -48 -7 -106 12 -126 40 -19 28 -19 48 0 41 19 -8 19 -3 0 32 -22 43 -19
116 6 148 11 14 25 24 30 21 5 -4 9 8 9 25 0 46 41 83 86 78 25 -3 38 0 44 12
5 9 24 17 46 18 21 2 40 5 43 7 12 13 32 2 59 -31z m3 -157 c40 -26 62 -81 50
-123 -17 -66 -129 -97 -198 -54 -44 27 -63 87 -41 134 31 63 126 85 189 43z"/>
<path d="M4667 419 c-17 -10 -47 -66 -47 -88 0 -5 12 -23 26 -40 21 -26 33
-31 69 -31 60 0 95 29 95 81 0 38 -26 79 -50 79 -5 0 2 -11 15 -25 53 -52 15
-125 -66 -125 -21 0 -40 4 -43 9 -3 5 14 6 38 4 76 -9 112 52 61 102 -13 14
-35 25 -48 25 -27 0 -57 -28 -57 -53 0 -40 64 -63 91 -31 17 21 0 49 -32 49
-29 0 -33 -28 -4 -33 16 -2 17 -1 5 7 -16 11 -7 27 9 16 14 -8 14 -32 1 -40
-15 -9 -47 4 -54 22 -7 18 20 53 41 53 16 0 63 -44 63 -60 0 -20 -41 -50 -68
-50 -36 0 -62 28 -62 67 0 34 15 50 57 63 27 8 27 8 3 9 -14 0 -33 -4 -43 -10z
m-18 -109 c11 -24 11 -24 -3 -6 -9 11 -16 24 -16 30 0 12 5 7 19 -24z"/>
<path d="M1600 610 c-11 -11 -20 -26 -20 -34 0 -8 -45 -57 -100 -109 -55 -52
-100 -98 -100 -102 0 -10 55 37 132 112 49 48 68 61 75 51 17 -27 106 -98 124
-98 24 0 69 56 69 86 0 17 -16 36 -57 69 -64 49 -93 55 -123 25z m78 -10 l33
-20 -32 -40 c-18 -22 -35 -40 -39 -40 -12 0 -50 41 -50 54 0 15 38 66 48 66 4
0 22 -9 40 -20z m92 -83 c0 -6 -12 -25 -26 -44 l-25 -33 -30 17 c-16 10 -29
21 -29 26 0 5 14 27 31 49 l32 39 23 -22 c13 -12 24 -27 24 -32z"/>
<path d="M2550 622 c0 -5 7 -26 15 -45 8 -20 15 -60 15 -89 l-1 -53 -34 38
c-41 43 -49 46 -41 13 10 -41 -5 -118 -24 -123 -27 -7 -41 -143 -21 -195 26
-66 102 -100 179 -79 96 25 127 78 127 217 0 107 -10 134 -46 134 -11 0 -19 7
-19 15 0 25 -36 88 -67 116 -39 36 -83 63 -83 51z m75 -63 c39 -44 65 -95 65
-129 0 -17 4 -19 24 -14 23 5 25 2 32 -41 11 -75 -1 -183 -23 -213 -28 -38
-80 -62 -136 -62 -42 0 -54 5 -83 34 -33 33 -34 37 -34 109 0 83 6 107 25 107
16 0 25 32 25 89 l0 44 21 -27 c25 -32 45 -33 53 -3 9 34 6 68 -8 110 -8 20
-10 37 -6 37 4 0 24 -18 45 -41z"/>
<path d="M2589 318 c-7 -18 -23 -42 -36 -54 -24 -22 -35 -75 -16 -81 6 -2 15
6 18 19 13 40 51 52 57 18 5 -35 23 -23 29 20 4 31 2 40 -8 36 -9 -4 -13 6
-13 34 0 48 -13 51 -31 8z m17 -54 c-3 -8 -12 -14 -21 -14 -13 0 -12 5 3 37
15 32 17 33 20 14 2 -12 1 -29 -2 -37z m21 -41 c-3 -10 -5 -4 -5 12 0 17 2 24
5 18 2 -7 2 -21 0 -30z"/>
<path d="M3285 618 c-34 -18 -65 -51 -65 -67 0 -10 9 -5 25 16 31 39 85 59
114 43 32 -16 51 -64 51 -124 0 -76 -6 -86 -49 -86 -20 0 -46 -7 -57 -15 -12
-8 -24 -12 -26 -9 -3 2 -1 -19 4 -48 6 -29 7 -79 4 -111 -10 -97 -36 -123 -68
-67 -27 48 -55 41 -102 -25 -18 -25 -24 -19 -39 40 -7 27 -19 53 -28 58 -23
15 -65 -14 -86 -58 -9 -19 -19 -35 -23 -35 -3 0 -11 52 -18 117 -6 64 -17 121
-23 127 -9 8 -10 4 -5 -19 3 -16 9 -74 12 -128 10 -138 30 -150 86 -48 22 40
55 42 64 4 20 -93 44 -106 88 -48 15 19 31 35 36 35 4 0 17 -16 29 -35 23 -40
40 -44 67 -14 16 17 20 42 24 138 l5 116 45 5 c61 7 68 13 75 64 20 128 -56
221 -140 174z"/>
<path d="M4393 617 c-44 -20 -74 -140 -38 -153 19 -8 45 13 45 35 0 9 9 33 20
54 32 59 21 86 -27 64z m27 -19 c-1 -7 -7 -24 -15 -38 -8 -14 -14 -35 -15 -47
0 -25 -17 -40 -30 -27 -13 13 5 82 26 105 20 22 34 25 34 7z"/>
<path d="M3863 595 c-120 -28 -149 -40 -176 -76 -36 -49 -11 -229 40 -290 22
-25 32 -29 76 -29 29 0 97 11 152 24 55 13 123 27 150 31 83 12 85 15 85 105
0 101 -30 200 -72 235 -39 33 -115 32 -255 0z m239 -5 c46 -36 85 -180 72
-265 -6 -44 -7 -44 -53 -50 -25 -3 -91 -17 -146 -30 -55 -14 -125 -27 -156
-31 -52 -6 -57 -5 -77 21 -52 65 -75 243 -38 284 21 23 81 43 215 71 116 24
153 24 183 0z"/>
<path d="M4047 574 c-16 -16 -6 -35 16 -32 12 2 22 10 22 18 0 16 -26 25 -38
14z"/>
<path d="M3887 489 c-29 -17 -49 -68 -43 -105 7 -37 56 -84 88 -84 35 0 88 32
103 61 23 43 18 68 -19 105 -27 27 -42 34 -72 34 -22 0 -47 -5 -57 -11z m121
-35 c12 -14 22 -38 22 -54 0 -53 -84 -99 -129 -71 -8 5 -10 14 -6 22 6 9 4 11
-8 6 -18 -7 -27 11 -27 51 1 76 96 105 148 46z"/>
<path d="M3906 404 c9 -50 11 -52 35 -27 l21 20 -32 23 -31 22 7 -38z m29 -3
c3 -5 1 -12 -5 -16 -5 -3 -10 1 -10 9 0 18 6 21 15 7z"/>
<path d="M4130 390 c0 -5 7 -10 15 -10 8 0 15 5 15 10 0 6 -7 10 -15 10 -8 0
-15 -4 -15 -10z"/>
<path d="M0 580 c0 -5 14 -10 31 -10 17 0 39 -5 50 -10 13 -8 19 -7 19 0 0 13
-43 30 -76 30 -13 0 -24 -4 -24 -10z"/>
<path d="M5875 552 c-3 -15 -22 -55 -42 -87 -48 -81 -53 -122 -18 -163 15 -18
32 -32 38 -32 6 0 -1 13 -16 28 -39 41 -36 85 11 158 38 58 60 124 43 124 -5
0 -12 -13 -16 -28z"/>
<path d="M5089 524 c22 -25 48 -66 57 -90 9 -24 21 -44 25 -44 12 0 12 2 -12
57 -19 46 -83 123 -102 123 -5 0 9 -21 32 -46z"/>
<path d="M4246 540 c3 -14 12 -47 20 -75 11 -35 13 -72 9 -124 -5 -52 -4 -71
4 -67 6 4 11 14 11 22 0 8 4 14 9 14 18 0 59 -41 65 -65 4 -14 11 -25 16 -25
29 0 -23 79 -60 93 -29 11 -30 13 -30 82 0 55 -6 81 -25 120 -14 28 -23 39
-19 25z"/>
<path d="M13 543 c-7 -2 -13 -9 -13 -14 0 -4 7 -6 16 -2 14 5 14 3 3 -14 -16
-27 -5 -53 23 -54 16 -1 13 -4 -12 -10 -29 -7 -25 -7 19 -4 29 2 59 9 67 16 8
6 25 9 39 6 17 -3 24 0 22 7 -2 6 -18 10 -36 10 -26 -2 -31 2 -31 20 0 18 -9
25 -39 34 -41 13 -40 13 -58 5z m68 -23 c23 -13 25 -45 4 -54 -22 -8 -65 11
-65 29 0 8 9 15 20 15 14 0 20 -7 20 -21 0 -11 5 -17 10 -14 14 9 12 21 -6 39
-18 18 -11 21 17 6z"/>
<path d="M30 490 c0 -5 5 -10 10 -10 6 0 10 5 10 10 0 6 -4 10 -10 10 -5 0
-10 -4 -10 -10z"/>
<path d="M805 489 c-49 -26 -91 -52 -93 -57 -2 -6 40 11 93 38 85 43 105 57
93 64 -1 1 -43 -19 -93 -45z"/>
<path d="M2950 487 c-69 -25 -110 -47 -110 -59 0 -11 3 -10 52 17 64 36 171
58 238 50 47 -6 61 -13 93 -46 20 -22 37 -34 37 -27 -1 20 -22 43 -60 67 -50
30 -162 29 -250 -2z"/>
<path d="M1536 444 c-9 -24 -7 -29 6 -16 8 8 17 8 30 1 19 -10 19 -12 3 -29
-10 -11 -15 -26 -11 -35 9 -25 31 -12 31 18 -1 34 5 34 40 -3 l28 -29 -27 -36
-28 -36 -61 66 c-34 36 -68 65 -75 65 -7 0 16 -30 52 -66 62 -62 77 -84 59
-84 -14 -1 -56 -40 -50 -47 9 -8 91 60 123 103 l27 35 -24 25 c-23 25 -102 84
-112 84 -3 0 -8 -7 -11 -16z m54 -64 c0 -5 -5 -10 -11 -10 -5 0 -7 5 -4 10 3
6 8 10 11 10 2 0 4 -4 4 -10z"/>
<path d="M3470 441 c0 -6 8 -11 19 -11 25 0 43 -24 39 -52 -2 -19 -10 -24 -47
-28 -38 -4 -45 -9 -48 -30 -2 -14 -5 -31 -8 -37 -5 -15 -51 -17 -60 -3 -3 6
-1 10 4 10 6 0 11 9 11 20 0 11 -7 20 -15 20 -8 0 -15 -7 -15 -15 0 -8 -7 -15
-15 -15 -8 0 -15 -5 -15 -11 0 -6 5 -9 12 -7 6 2 20 -4 30 -14 10 -10 25 -18
33 -18 23 0 55 37 55 64 0 22 3 24 34 19 27 -4 36 -1 50 18 19 28 20 49 4 72
-16 20 -68 34 -68 18z"/>
<path d="M5975 400 c-55 -21 -81 -94 -46 -129 21 -21 71 -29 71 -12 0 5 -12 9
-26 9 -65 0 -52 100 17 124 8 3 12 8 9 10 -3 3 -14 2 -25 -2z"/>
<path d="M10 384 c0 -8 5 -12 10 -9 6 3 10 10 10 16 0 5 -4 9 -10 9 -5 0 -10
-7 -10 -16z"/>
<path d="M50 390 c0 -5 5 -10 10 -10 6 0 10 5 10 10 0 6 -4 10 -10 10 -5 0
-10 -4 -10 -10z"/>
<path d="M3110 368 c-11 -18 -20 -45 -20 -59 0 -22 -5 -28 -32 -32 -18 -2 -35
-3 -37 -1 -3 3 -7 22 -10 45 -6 42 -27 55 -24 14 3 -37 28 -80 44 -76 8 1 47
5 88 8 55 4 76 2 83 -8 6 -9 8 6 4 45 -8 94 -58 127 -96 64z m80 -42 c7 -34
-2 -51 -13 -23 -4 9 -8 9 -14 1 -4 -6 -18 -14 -30 -18 -21 -7 -23 -4 -23 26 0
21 8 43 21 57 19 20 23 21 36 8 8 -8 18 -31 23 -51z"/>
<path d="M1110 383 c0 -5 18 -16 40 -25 31 -13 42 -23 46 -47 7 -33 24 -43 24
-13 0 28 -30 63 -66 78 -38 16 -44 17 -44 7z"/>
<path d="M69 364 c-8 -10 -23 -14 -41 -12 -30 5 -38 -6 -12 -16 18 -7 84 19
84 33 0 16 -16 13 -31 -5z"/>
<path d="M2826 343 c21 -61 17 -132 -11 -181 -14 -24 -19 -42 -12 -39 6 2 21
19 32 38 24 41 27 137 6 187 -19 45 -32 40 -15 -5z"/>
<path d="M3597 320 c-4 -33 -11 -69 -17 -80 -5 -10 -10 -32 -10 -49 0 -34 -20
-58 -56 -67 -37 -9 -51 9 -34 43 24 47 24 49 1 29 -15 -14 -21 -29 -19 -50 3
-27 7 -31 38 -34 24 -2 42 3 55 16 19 18 20 17 40 -12 11 -17 30 -32 41 -34
25 -4 59 32 51 53 -9 23 -27 18 -24 -7 3 -34 -37 -37 -59 -3 -17 26 -17 31 5
180 4 33 5 64 1 68 -4 4 -10 -19 -13 -53z"/>
<path d="M1757 325 c-13 -79 -50 -146 -98 -177 -47 -30 -111 -44 -164 -34 -22
4 -35 3 -35 -4 0 -20 140 -12 187 11 72 35 128 134 121 215 l-3 39 -8 -50z"/>
<path d="M1290 319 c0 -11 32 -20 51 -14 15 5 18 1 16 -22 -2 -26 1 -28 31
-26 26 1 32 -2 27 -16 -3 -9 6 -28 22 -45 l26 -28 18 23 c26 34 24 39 -16 32
-29 -5 -35 -3 -35 12 0 10 7 27 17 37 9 10 11 18 5 18 -6 0 -14 -4 -17 -10 -3
-5 -20 -10 -36 -10 -28 0 -30 2 -25 28 6 26 5 27 -39 27 -25 0 -45 -3 -45 -6z
m180 -119 c0 -5 -5 -10 -11 -10 -5 0 -7 5 -4 10 3 6 8 10 11 10 2 0 4 -4 4
-10z"/>
<path d="M5975 320 c-3 -5 1 -10 9 -10 9 0 16 5 16 10 0 6 -4 10 -9 10 -6 0
-13 -4 -16 -10z"/>
<path d="M110 293 c-14 -10 -45 -20 -70 -24 -34 -4 -41 -7 -27 -14 23 -10 87
9 119 35 29 24 11 26 -22 3z"/>
<path d="M5162 275 c-12 -19 -18 -35 -13 -35 5 0 19 15 30 33 21 31 21 32 15
5 -5 -21 -2 -28 9 -28 11 0 15 9 15 30 -1 41 -27 39 -56 -5z"/>
<path d="M1832 225 c-16 -54 -31 -84 -57 -110 -20 -19 -30 -35 -22 -35 17 0
50 35 70 75 22 45 47 134 38 139 -4 3 -17 -28 -29 -69z"/>
<path d="M2362 280 c-39 -33 -146 -60 -233 -60 -46 0 -79 -4 -79 -10 0 -15
128 -12 193 5 66 17 157 61 157 75 0 15 -12 12 -38 -10z"/>
<path d="M5720 292 c0 -4 9 -13 20 -20 12 -7 20 -23 20 -38 0 -14 4 -23 10
-19 17 11 11 41 -13 63 -24 23 -37 28 -37 14z"/>
<path d="M1029 210 c-47 -25 -92 -72 -115 -121 -15 -32 -23 -39 -42 -36 -14 3
-21 0 -19 -7 2 -6 14 -11 28 -11 18 0 29 11 47 45 28 53 56 85 97 109 37 23
98 35 128 25 19 -6 18 -8 -13 -18 -58 -19 -66 -96 -10 -96 28 0 70 39 70 66 0
13 2 24 5 24 2 0 38 -13 80 -30 82 -33 95 -35 95 -20 0 6 -6 10 -12 10 -15 0
-142 46 -181 66 -39 19 -115 17 -158 -6z m161 -33 c0 -25 -31 -57 -56 -57 -19
0 -24 5 -24 25 0 13 8 29 18 34 24 15 62 13 62 -2z"/>
<path d="M4231 207 c-9 -22 -16 -25 -99 -31 -86 -7 -179 -38 -196 -65 -10 -16
-4 -14 52 15 39 20 73 28 146 33 53 4 99 11 103 14 3 4 15 -7 25 -24 10 -16
37 -39 61 -49 45 -21 122 -26 132 -10 4 6 -13 10 -45 10 -89 0 -154 44 -148
100 4 32 -20 37 -31 7z"/>
<path d="M5281 219 c-65 -13 -141 -39 -141 -49 0 -5 26 0 58 12 80 28 219 34
367 14 139 -19 175 -20 175 -6 0 6 -19 10 -42 10 -24 0 -97 7 -163 15 -131 16
-187 17 -254 4z"/>
<path d="M280 211 c0 -5 10 -11 23 -13 25 -3 35 -41 17 -64 -23 -27 -58 -17
-79 24 -11 20 -20 31 -21 24 0 -27 31 -72 56 -78 18 -5 32 0 50 17 29 27 31
60 6 82 -20 18 -52 23 -52 8z"/>
<path d="M1930 178 c0 -13 -9 -38 -20 -56 -22 -36 -24 -42 -12 -42 12 0 39 51
47 88 4 20 3 32 -4 32 -6 0 -11 -10 -11 -22z"/>
<path d="M2333 163 c-25 -14 -69 -27 -105 -32 -44 -5 -58 -10 -45 -16 36 -15
197 38 197 66 0 5 -1 9 -2 8 -2 -1 -22 -12 -45 -26z"/>
<path d="M5955 161 c-16 -4 -55 -19 -85 -34 -46 -22 -68 -27 -137 -27 -45 0
-112 6 -150 14 -177 37 -293 39 -377 7 -48 -19 -22 -24 35 -7 54 16 189 22
189 9 0 -5 12 -8 28 -9 15 0 74 -8 131 -18 138 -25 218 -19 303 23 36 17 74
31 86 31 12 0 22 5 22 10 0 6 -3 9 -7 9 -5 -1 -21 -5 -38 -8z"/>
<path d="M752 138 c5 -32 28 -35 28 -4 0 17 -5 26 -16 26 -10 0 -14 -7 -12
-22z"/>
<path d="M0 139 c0 -17 64 -41 122 -46 40 -4 58 -2 58 6 0 7 -20 11 -53 11
-32 0 -67 7 -90 19 -20 10 -37 15 -37 10z"/>
<path d="M21 30 c0 -29 1 -32 10 -17 7 11 7 23 0 35 -9 14 -10 11 -10 -18z"/>
<path d="M230 30 c0 -24 3 -31 9 -21 5 8 16 11 25 8 9 -4 16 -2 16 3 0 6 -7
10 -15 10 -7 0 -19 8 -24 18 -9 14 -10 11 -11 -18z"/>
<path d="M265 50 c3 -5 16 -10 28 -10 18 0 19 2 7 10 -20 13 -43 13 -35 0z"/>
<path d="M360 28 c0 -36 4 -35 14 5 4 16 2 27 -4 27 -5 0 -10 -14 -10 -32z"/>
<path d="M523 44 c-8 -21 13 -42 28 -27 13 13 5 43 -11 43 -6 0 -13 -7 -17
-16z"/>
<path d="M706 35 l-7 -26 -28 21 c-38 26 -41 25 -40 -7 1 -17 3 -21 6 -11 6
22 12 22 35 1 17 -15 19 -15 38 2 21 19 27 45 11 45 -5 0 -12 -11 -15 -25z"/>
<path d="M793 48 c-16 -21 -23 -48 -13 -48 6 0 10 5 10 12 0 6 7 20 17 30 9
10 11 18 6 18 -6 0 -15 -6 -20 -12z"/>
<path d="M1000 30 c0 -17 5 -30 10 -30 6 0 10 9 10 20 0 13 7 20 19 20 11 0
23 5 26 10 4 6 -8 10 -29 10 -33 0 -36 -2 -36 -30z"/>
<path d="M1222 45 c3 -18 10 -20 66 -17 48 3 63 0 68 -11 4 -12 15 -14 42 -10
43 7 62 19 62 41 0 13 -3 12 -15 -5 -17 -25 -72 -36 -79 -16 -3 7 -20 13 -39
13 -18 0 -38 5 -45 12 -9 9 -12 8 -12 -5 0 -22 -26 -22 -40 1 -10 15 -10 15
-8 -3z"/>
<path d="M1530 28 c0 -35 12 -30 17 7 2 14 -1 25 -7 25 -5 0 -10 -14 -10 -32z"/>
<path d="M1798 49 c-10 -5 -18 -20 -17 -32 l0 -22 9 23 c5 12 18 22 28 22 10
0 24 -10 30 -22 8 -17 11 -19 11 -6 1 16 -24 48 -37 48 -4 0 -15 -5 -24 -11z"/>
<path d="M1902 30 c1 -39 18 -39 18 0 0 17 -4 30 -9 30 -5 0 -9 -13 -9 -30z"/>
<path d="M2066 44 c-9 -23 -7 -44 3 -44 5 0 11 13 13 30 5 32 -6 41 -16 14z"/>
<path d="M2123 34 c-14 -14 -22 -28 -19 -32 4 -3 13 4 22 16 21 31 87 31 108
0 9 -12 18 -19 22 -16 3 4 -5 18 -19 32 -34 34 -80 34 -114 0z"/>
<path d="M2330 31 c0 -21 5 -26 28 -27 26 -2 26 -1 5 9 -32 14 -29 29 3 17 14
-6 30 -10 36 -10 19 0 0 13 -37 26 -34 11 -35 11 -35 -15z"/>
<path d="M2450 30 c0 -18 4 -29 10 -25 6 3 10 15 10 25 0 10 -4 22 -10 25 -6
4 -10 -7 -10 -25z"/>
<path d="M2506 33 c10 -40 14 -41 14 -5 0 18 -5 32 -10 32 -6 0 -8 -11 -4 -27z"/>
<path d="M2591 33 c-12 -14 -19 -28 -17 -30 4 -4 56 44 56 52 0 14 -21 2 -39
-22z"/>
<path d="M2801 43 c-1 -12 7 -27 18 -32 15 -8 20 -6 30 15 13 30 14 34 3 34
-5 0 -14 -10 -19 -22 l-11 -23 -10 25 c-10 24 -11 24 -11 3z"/>
<path d="M2904 35 c-24 -37 -12 -40 15 -5 12 17 17 30 12 30 -6 0 -18 -11 -27
-25z"/>
<path d="M3123 29 c8 -21 13 -26 15 -14 5 21 -5 45 -17 45 -5 0 -4 -13 2 -31z"/>
<path d="M3186 44 c-9 -24 -7 -44 4 -44 6 0 10 8 10 18 0 10 5 23 12 30 9 9 8
12 -4 12 -9 0 -19 -7 -22 -16z"/>
<path d="M3251 49 c-1 -9 5 -22 13 -28 16 -14 118 -22 110 -9 -3 4 -25 8 -48
8 -34 0 -47 5 -59 23 -12 17 -16 18 -16 6z"/>
<path d="M3310 50 c0 -5 5 -10 10 -10 6 0 10 5 10 10 0 6 -4 10 -10 10 -5 0
-10 -4 -10 -10z"/>
<path d="M3411 30 c-1 -26 2 -31 11 -22 8 8 8 17 0 34 -10 22 -11 21 -11 -12z"/>
<path d="M3460 46 c0 -20 11 -46 19 -46 4 0 6 13 3 30 -4 30 -22 43 -22 16z"/>
<path d="M3530 46 c0 -18 27 -46 45 -46 15 0 45 27 45 40 0 20 -19 18 -22 -2
-4 -31 -42 -31 -46 0 -4 24 -22 31 -22 8z"/>
<path d="M3650 31 c0 -17 5 -31 10 -31 6 0 10 11 10 24 0 14 -4 28 -10 31 -6
4 -10 -7 -10 -24z"/>
<path d="M3852 38 c6 -42 78 -32 78 11 0 12 -5 10 -19 -8 -20 -26 -58 -23 -47
4 3 8 1 15 -5 15 -6 0 -9 -10 -7 -22z"/>
<path d="M4060 45 c0 -9 -9 -15 -24 -15 -14 0 -28 -5 -31 -10 -4 -7 2 -9 19
-4 16 4 32 1 41 -6 13 -11 15 -8 15 19 0 17 -4 31 -10 31 -5 0 -10 -7 -10 -15z"/>
<path d="M4133 42 c10 -10 17 -24 17 -30 0 -7 5 -12 10 -12 6 0 10 3 10 8 0
14 -31 52 -42 52 -6 0 -4 -8 5 -18z"/>
<path d="M4207 53 c-13 -12 -7 -41 9 -47 21 -8 20 -8 38 10 18 17 21 44 6 44
-5 0 -10 -9 -10 -20 0 -13 -7 -20 -20 -20 -11 0 -20 5 -20 10 0 6 5 10 10 10
6 0 10 5 10 10 0 11 -13 13 -23 3z"/>
<path d="M4340 30 c0 -17 3 -30 8 -30 4 0 7 13 7 30 0 17 -3 30 -7 30 -5 0 -8
-13 -8 -30z"/>
<path d="M4420 54 c0 -5 12 -20 25 -33 23 -21 34 -19 17 4 -13 18 -42 38 -42
29z"/>
<path d="M4528 30 c-3 -17 -1 -30 4 -30 4 0 8 10 8 22 0 21 0 21 26 -3 l26
-24 19 24 c21 26 24 41 9 41 -5 0 -10 -6 -10 -14 0 -25 -19 -28 -49 -7 l-29
21 -4 -30z"/>
<path d="M4671 30 c11 -30 29 -41 29 -18 0 6 7 20 17 30 11 13 12 18 3 18 -7
0 -19 -8 -26 -17 -13 -17 -13 -17 -14 0 0 9 -4 17 -9 17 -6 0 -6 -12 0 -30z"/>
<path d="M4788 44 c12 -8 22 -22 22 -30 0 -8 5 -14 10 -14 14 0 12 12 -6 38
-8 12 -23 22 -32 22 -13 0 -12 -3 6 -16z"/>
<path d="M4860 32 c0 -18 5 -32 10 -32 6 0 8 11 4 28 -10 39 -14 40 -14 4z"/>
<path d="M4920 45 c-7 -8 -9 -22 -5 -32 6 -15 9 -13 16 11 10 35 7 42 -11 21z"/>
<path d="M5018 49 c-10 -5 -18 -20 -17 -32 l0 -22 9 23 c12 27 46 29 55 2 3
-11 10 -20 15 -20 13 0 0 33 -18 48 -19 14 -22 14 -44 1z"/>
<path d="M5140 31 c0 -17 5 -31 10 -31 6 0 10 5 10 11 0 6 9 9 20 6 11 -3 20
-1 20 4 0 5 -6 9 -14 9 -8 0 -22 7 -30 16 -15 14 -16 13 -16 -15z"/>
<path d="M5180 50 c20 -13 53 -13 45 0 -3 6 -18 10 -33 10 -21 0 -24 -2 -12
-10z"/>
<path d="M5316 33 c10 -40 14 -41 14 -5 0 18 -5 32 -10 32 -6 0 -8 -11 -4 -27z"/>
<path d="M5376 35 c20 -31 28 -32 19 -4 -5 16 -3 20 6 17 8 -3 13 -15 11 -26
-2 -12 2 -22 7 -22 6 0 11 13 11 30 0 28 -3 30 -35 30 l-35 0 16 -25z"/>
<path d="M5600 45 c-17 -21 -5 -45 22 -44 l23 2 -22 4 c-26 5 -29 13 -11 31
26 26 91 1 73 -28 -3 -5 -1 -10 4 -10 15 0 14 33 -1 48 -17 17 -73 15 -88 -3z"/>
<path d="M5730 46 c0 -8 5 -18 10 -21 13 -8 42 14 34 26 -9 15 -44 10 -44 -5z"/>
<path d="M5816 37 c-5 -15 -6 -31 -2 -34 11 -11 18 5 14 34 l-4 28 -8 -28z"/>
<path d="M5982 40 c14 -22 24 -19 15 5 -4 8 -11 15 -17 15 -6 0 -6 -7 2 -20z"/>
<path d="M86 43 c-10 -11 -7 -43 5 -43 6 0 9 7 5 15 -7 20 37 20 54 0 7 -8 17
-15 23 -15 6 0 3 8 -8 19 -22 20 -68 35 -79 24z"/>
<path d="M440 42 c0 -4 12 -15 26 -26 26 -18 26 -18 15 2 -10 19 -41 38 -41
24z"/>
<path d="M1122 35 c-11 -13 -10 -15 6 -15 10 0 23 -5 30 -12 15 -15 16 -3 2
23 -13 23 -20 23 -38 4z"/>
<path d="M2665 43 c-25 -7 -67 -34 -61 -40 3 -3 15 2 28 11 29 21 77 20 100
-1 10 -9 18 -11 18 -6 0 24 -49 44 -85 36z"/>
<path d="M5466 29 c-36 -28 -26 -37 11 -9 30 22 63 19 63 -6 0 -8 5 -14 10
-14 15 0 12 16 -6 34 -21 22 -46 20 -78 -5z"/>
<path d="M1954 26 c-8 -21 4 -35 15 -17 5 8 17 11 30 6 12 -4 21 -2 21 4 0 6
-6 11 -14 11 -8 0 -21 3 -30 6 -10 4 -18 0 -22 -10z"/>
<path d="M3717 33 c-11 -10 -8 -33 3 -33 6 0 10 7 10 16 0 11 6 14 23 9 12 -4
26 -11 32 -16 5 -5 14 -9 20 -9 5 1 -1 10 -14 20 -23 20 -61 26 -74 13z"/>
<path d="M5640 29 c0 -5 5 -7 10 -4 6 3 10 8 10 11 0 2 -4 4 -10 4 -5 0 -10
-5 -10 -11z"/>
<path d="M5857 33 c-4 -3 -7 -13 -7 -21 0 -13 3 -12 19 2 16 15 19 15 31 1 7
-9 15 -13 18 -10 3 2 -1 11 -8 20 -13 15 -42 20 -53 8z"/>
<path d="M1615 15 l-20 -17 20 8 c40 15 95 16 112 3 14 -12 16 -12 11 1 -7 22
-97 26 -123 5z"/>
<path d="M3063 23 c-18 -7 -16 -23 2 -23 8 0 15 7 15 15 0 8 -1 15 -2 14 -2 0
-9 -3 -15 -6z"/>
<path d="M4391 14 c0 -11 3 -14 6 -6 3 7 2 16 -1 19 -3 4 -6 -2 -5 -13z"/>
<path d="M4735 20 c-4 -6 -4 -14 0 -18 4 -4 10 -1 12 6 4 10 8 10 21 0 13 -11
14 -11 10 2 -6 19 -34 25 -43 10z"/>
<path d="M1810 10 c0 -5 5 -10 10 -10 6 0 10 5 10 10 0 6 -4 10 -10 10 -5 0
-10 -4 -10 -10z"/>
<path d="M2170 10 c0 -5 5 -10 10 -10 6 0 10 5 10 10 0 6 -4 10 -10 10 -5 0
-10 -4 -10 -10z"/>
<path d="M3025 10 c3 -5 8 -10 11 -10 2 0 4 5 4 10 0 6 -5 10 -11 10 -5 0 -7
-4 -4 -10z"/>
<path d="M948 3 c7 -3 16 -2 19 1 4 3 -2 6 -13 5 -11 0 -14 -3 -6 -6z"/>
</g>
</svg>
